
<svg xmlns="http://www.w3.org/2000/svg" viewBox="0 0 55 55">
	<style type="text/css">
		.st0{fill:#555555;}
		.st1{fill:#333333;}
	</style>
	<path class="st0" d="M43.5,42.4c0.9-5.1,3.4-15.3,0.3-24.1C40.1,8.2,27.2,8,26.8,7.4c-0.4-0.6-4-5-6.2-4.8c-2.2,0.2,0.1,4-1.4,4.7
		c-1,0.4-4.9,4.3-5.4,5.8c-0.4,1.2,0.3,2.1-0.7,4.3c-1,2.1-6.6,7.6-6.7,10.9c-0.1,3.2,7.5,5.3,8.7,4.7c1-0.4,2.1-3.8,2.8-4.3
		s1.9-0.3,3.4-0.3c1.5,0.1,4-2.2,4.6-2.7c0.9-0.7,0.6-1.8,1.5-2.2c0.9-0.3,0.8,1,0.9,3.1S24,33,20.7,35.4c-2.9,2-4.1,4.6-3.9,7.1
		c-2,0.5-4.7,2.4-4.7,4.1v5.9h36.5v-5.9C48.6,44.8,45.5,42.8,43.5,42.4z"/>
	<path class="st1" d="M22.4,12.9c-0.9-0.3-3.6,2.1-3.8,3.2c-0.3,1.3,5.4,1.1,5.8-0.7C24.6,14.6,23.7,13.4,22.4,12.9z"/>
	<path d="M22.4,13.1c-0.9-0.3-4.1,2.6-3,2.9c1.1,0.3,4.3,0.2,4.4-0.7C24,14.4,23.8,13.6,22.4,13.1z"/>
	<path class="st1" d="M43,52.5h5.5v-5.9c0-1.7-3-3.7-5-4.1c0.9-5.1,3.4-15.3,0.3-24.1C40.2,8.2,27.2,8,26.8,7.4c-0.4-0.6-4-5-6.2-4.8
		c2.5,0.6,5.3,5,4.9,5.5c8.1-0.1,16.3,7.6,15.5,16c-0.8,8.4-7,13.7-7.5,15.6c-0.5,1.9-1.8,2.4-8.8,2.6C44.1,41.9,46.6,43.9,43,52.5z"
		/>
	<path class="st1" d="M20.7,35.4c3.3-2.3,7.7-6.8,7.6-8.8c-0.1-2,0-3.4-0.9-3.1c-0.9,0.3-0.6,1.4-1.5,2.2c-0.6,0.5-3.1,2.8-4.6,2.7
		c-1.5-0.1-2.7-0.3-3.4,0.3c-0.7,0.5-1.8,3.9-2.8,4.3c-1.2,0.5-8.8-1.6-8.7-4.7c2.3,5.3,11.2,4,9.6-0.4c-1-2.9,2.1-1.4,3.1-0.8
		c1.1,0.6,4,1,5.8-1.7c1.8-2.7,2.5-3.9,3.6-4.5c1.1-0.6,0.5-2.7,1.1-2.2c0.6,0.5,1.9,3,0.3,7.4C28.5,30.4,22.1,34.3,20.7,35.4z"/>
	<path d="M49.1,53H11.5v-6.5c0-1.8,2.6-3.7,4.7-4.5c-0.1-2.7,1.4-5.2,4.1-7.1c3.4-2.4,7.5-6.7,7.4-8.3c0-0.4,0-0.7-0.1-1
		c0-0.6-0.1-1.3-0.2-1.6c-0.2,0.1-0.3,0.2-0.4,0.7c-0.2,0.4-0.3,0.9-0.9,1.4l-0.1,0.1c-1.4,1.2-3.4,2.8-4.9,2.8c-0.3,0-0.5,0-0.8,0
		c-1-0.1-1.9-0.1-2.2,0.2c-0.2,0.1-0.6,0.9-0.9,1.5c-0.8,1.5-1.3,2.6-2.1,2.9c-0.8,0.3-2.5-0.1-3.2-0.3c-1.5-0.4-3.1-1.1-4.1-1.8
		c-1.4-1-2.1-2-2.1-3.2c0-2.4,2.5-5.5,4.6-8.1c1-1.2,1.9-2.4,2.2-3.1c0.5-1.2,0.5-2,0.5-2.7c0-0.5,0-1,0.2-1.6
		c0.6-1.7,4.7-5.7,5.7-6.1c0.3-0.1,0.2-1,0.1-1.6c-0.1-0.9-0.2-1.9,0.3-2.6C19.7,2.2,20.1,2,20.6,2c1.1-0.1,2.5,0.7,4.2,2.3
		c1.2,1.1,2.1,2.2,2.4,2.7c0.2,0.1,0.7,0.2,1.1,0.2c3.5,0.7,12.9,2.5,16,11c2.9,7.9,1.1,17.1,0.1,22.5c-0.1,0.5-0.2,0.9-0.2,1.3
		c2.2,0.6,4.9,2.6,4.9,4.5V53z M12.6,51.9H48v-5.4c0-0.6-0.6-1.4-1.5-2.1c-0.9-0.7-2.1-1.3-3-1.5l-0.5-0.1l0.1-0.5
		c0.1-0.6,0.2-1.2,0.3-1.8c1-5.4,2.7-14.3,0-22c-1.2-3.4-3.7-6-7.3-7.8c-3-1.5-6.2-2.1-7.8-2.4C26.9,8,26.6,8,26.4,7.7
		c-0.1-0.2-1.1-1.4-2.3-2.6c-1.4-1.3-2.6-2-3.3-2c-0.3,0-0.4,0.1-0.4,0.2c-0.2,0.3-0.1,1.1-0.1,1.7c0.1,1.1,0.3,2.3-0.7,2.8
		c-0.8,0.4-4.6,4.1-5.1,5.5c-0.1,0.4-0.1,0.7-0.1,1.2c0,0.8,0,1.7-0.6,3.2c-0.4,0.8-1.3,2-2.3,3.3C9.5,23.1,7,26.3,7,28.3
		c0,0.9,0.9,1.7,1.6,2.2c2.3,1.6,5.8,2.2,6.3,2c0.4-0.2,1.1-1.6,1.5-2.3c0.5-1,0.8-1.6,1.2-1.9c0.7-0.6,1.8-0.5,3-0.4
		c0.2,0,0.5,0,0.8,0c0.5,0,1.7-0.4,4.1-2.5l0.1-0.1c0.3-0.3,0.4-0.6,0.5-0.9c0.2-0.5,0.4-1.1,1.1-1.3c0.5-0.2,0.8,0,1,0.1
		c0.6,0.4,0.6,1.2,0.6,2.5c0,0.3,0,0.6,0.1,1c0.2,2.5-5,7.3-7.9,9.3c-2.6,1.8-3.9,4.1-3.7,6.6l0,0.5L17,43c-2.3,0.6-4.3,2.5-4.3,3.5
		V51.9z"/>
</svg>
