<?xml version="1.0" encoding="utf-8"?>
<!-- Generator: Adobe Illustrator 24.0.2, SVG Export Plug-In . SVG Version: 6.00 Build 0)  -->
<svg version="1.1" id="Layer_1" xmlns="http://www.w3.org/2000/svg" xmlns:xlink="http://www.w3.org/1999/xlink" x="0px" y="0px"
	 viewBox="0 0 500 500" style="enable-background:new 0 0 500 500;" xml:space="preserve">
<style type="text/css">
	.st0{fill:#555555;}
	.st1{fill:#333333;}
	.st2{fill:none;stroke:#000000;stroke-width:10;stroke-miterlimit:10;}
</style>
<g id="black-knight">
	<path class="st0" d="M394.1,384.1c8.1-46,30.7-137.9,2.4-216.4c-32.9-91-149.2-93.6-152.7-98.9c-3.5-5.3-35.7-44.9-55.6-43.3
		c-20.2,1.7,0.6,36.3-12.3,42.1c-8.6,3.9-43.9,38.6-48.6,52.1c-3.6,10.4,2.3,19.3-6.4,38.6c-8.8,19.3-59.7,68.4-60.3,98.3
		c-0.5,28.5,67.3,47.4,78.4,42.7c8.9-3.7,19.3-33.9,25.2-38.6c5.9-4.7,17-2.9,30.4-2.3c13.5,0.6,36.1-20.1,41.1-24.5
		c7.8-6.7,5.1-16.5,13.3-19.5c8.2-2.9,7,9.4,8.2,27.5c1.2,18.1-38.6,57.9-68.5,79c-25.9,18.3-36.8,41.5-35,63.7
		c-17.9,4.9-42.4,21.9-42.4,36.5v53.3h327.9v-53.3C439.3,405.9,412.2,387.8,394.1,384.1z"/>
	<path class="st1" d="M203.6,118.8c-8.3-2.6-32.3,19-34.3,29.2c-2.3,11.7,48.2,10,52.6-6.4C224.1,133.5,215.8,122.7,203.6,118.8z"/>
	<path d="M204.1,120.6c-8.3-2.6-37.2,23.3-27.2,26.1s38.9,1.7,40-6.7C218,131.7,216.3,124.5,204.1,120.6z"/>
	<path class="st1" d="M389.5,474.5h49.9v-53.3c0-15.3-27.2-33.4-45.2-37.1c8.1-46,30.7-137.9,2.4-216.4
		c-32.9-91-149.2-93.6-152.7-98.9c-3.5-5.3-35.7-44.9-55.6-43.3c22.9,5.7,47.3,45.1,44.5,49.5c73.3-0.8,146.7,68.1,139.5,143.9
		c-7.2,75.7-62.6,123.5-67.4,140.7c-4.8,17.1-16.3,21.4-78.9,23.3C399.4,379.2,421.7,397.2,389.5,474.5z"/>
	<path class="st1" d="M188.8,321c29.8-21.1,69.6-60.8,68.5-79c-1.2-18.1,0-30.4-8.2-27.5c-8.2,2.9-5.5,12.8-13.3,19.5
		c-5.1,4.3-27.7,25-41.1,24.5c-13.5-0.6-24.6-2.4-30.4,2.3c-5.9,4.7-16.2,34.9-25.2,38.6c-11.1,4.7-78.9-14.2-78.4-42.7
		c21,47.6,100.3,36.4,86.7-3.5c-8.9-26.3,18.7-12.4,28.3-6.8c9.6,5.6,35.9,8.8,51.8-15.5s22.7-35.1,32.7-40.3
		c10-5.2,4.4-24.7,10-19.9c5.6,4.8,16.7,27.1,2.8,66.2C259,275.9,201.2,311.4,188.8,321z"/>
	<path class="st2" d="M394.1,384.1c8.1-46,30.7-137.9,2.4-216.4c-32.9-91-149.2-93.6-152.7-98.9c-3.5-5.3-35.7-44.9-55.6-43.3
		c-20.2,1.7,0.6,36.3-12.3,42.1c-8.6,3.9-43.9,38.6-48.6,52.1c-3.6,10.4,2.3,19.3-6.4,38.6c-8.8,19.3-59.7,68.4-60.3,98.3
		c-0.5,28.5,67.3,47.4,78.4,42.7c8.9-3.7,19.3-33.9,25.2-38.6c5.9-4.7,17-2.9,30.4-2.3c13.5,0.6,36.1-20.1,41.1-24.5
		c7.8-6.7,5.1-16.5,13.3-19.5c8.2-2.9,7,9.4,8.2,27.5c1.2,18.1-38.6,57.9-68.5,79c-25.9,18.3-36.8,41.5-35,63.7
		c-17.9,4.9-42.4,21.9-42.4,36.5v53.3h327.9v-53.3C439.3,405.9,412.2,387.8,394.1,384.1z"/>
</g>
</svg>
