<svg xmlns="http://www.w3.org/2000/svg" width="0" height="0">

	<svg id="icon-undo" viewBox="0 0 500 500">
		<path fill="#333" d="M474,314c0,35-17.5,80.75-31.75,112.75c-2.75,5.75-5.5,13.75-9.25,19c-1.75,2.5-3.5,4.25-7,4.25 c-5,0-8-4-8-8.75c0-4,1-8.5,1.25-12.5c0.75-10.25,1.25-20.5,1.25-30.75c0-119.25-70.75-140-178.5-140h-56v64c0,8.75-7.25,16-16,16 c-4.25,0-8.25-1.75-11.25-4.75l-128-128c-3-3-4.75-7-4.75-11.25s1.75-8.25,4.75-11.25l128-128c3-3,7-4.75,11.25-4.75 c8.75,0,16,7.25,16,16v64h56c82,0,184,14.5,218.75,100.75C471.25,257.25,474,286,474,314z"/>
	</svg>

	<svg id="icon-redo" viewBox="0 0 500 500">
		<path fill="#333" d="M474,194c0,4.25-1.75,8.25-4.75,11.25l-128,128c-3,3-7,4.75-11.25,4.75c-8.75,0-16-7.25-16-16v-64h-56 c-107.75,0-178.5,20.75-178.5,140c0,10.25,0.5,20.5,1.25,30.75c0.25,4,1.25,8.5,1.25,12.5c0,4.75-3,8.75-8,8.75 c-3.5,0-5.25-1.75-7-4.25c-3.75-5.25-6.5-13.25-9.25-19C43.5,394.75,26,349,26,314c0-28,2.75-56.75,13.25-83.25 C74,144.5,176,130,258,130h56V66c0-8.75,7.25-16,16-16c4.25,0,8.25,1.75,11.25,4.75l128,128C472.25,185.75,474,189.75,474,194z"/>
	</svg>

	<svg id="icon-gear" viewBox="0 0 500 500">
		<path d="M325.3,250c0-41.5-33.8-75.3-75.3-75.3s-75.3,33.8-75.3,75.3c0,41.5,33.8,75.3,75.3,75.3C291.5,325.3,325.3,291.5,325.3,250 L325.3,250z M476,217.9v65.3c0,4.4-3.5,9.7-8.2,10.6l-54.4,8.2c-3.2,9.4-6.8,18.2-11.5,26.8c10,14.4,20.6,27.4,31.5,40.6 c1.8,2.1,2.9,4.7,2.9,7.4c0,2.6-0.9,4.7-2.6,6.8c-7.1,9.4-46.8,52.7-56.8,52.7c-2.6,0-5.3-1.2-7.7-2.6l-40.6-31.8 c-8.5,4.4-17.7,8.2-26.8,11.2c-2.1,18-3.8,37.1-8.5,54.7c-1.2,4.7-5.3,8.2-10.6,8.2h-65.3c-5.3,0-10-3.8-10.6-8.8l-8.2-54.1 c-9.1-2.9-18-6.5-26.5-10.9l-41.5,31.5c-2.1,1.8-4.7,2.6-7.4,2.6c-2.6,0-5.3-1.2-7.4-3.2c-15.6-14.1-36.2-32.4-48.6-49.4 c-1.5-2.1-2.1-4.4-2.1-6.8c0-2.6,0.9-4.7,2.4-6.8c10-13.5,20.9-26.5,30.9-40.3c-5-9.4-9.1-19.1-12.1-29.1l-53.9-7.9 c-5-0.9-8.5-5.6-8.5-10.6v-65.3c0-4.4,3.5-9.7,7.9-10.6l54.7-8.2c2.9-9.4,6.8-18.2,11.5-27.1c-10-14.1-20.6-27.4-31.5-40.6 c-1.8-2.1-2.9-4.4-2.9-7.1c0-2.6,1.2-4.7,2.6-6.8c7.1-9.7,46.8-52.7,56.8-52.7c2.6,0,5.3,1.2,7.7,2.9l40.6,31.5 c8.5-4.4,17.7-8.2,26.8-11.2c2.1-18,3.8-37.1,8.5-54.7c1.2-4.7,5.3-8.2,10.6-8.2h65.3c5.3,0,10,3.8,10.6,8.8l8.2,54.1 c9.1,2.9,18,6.5,26.5,10.9l41.8-31.5c1.8-1.8,4.4-2.6,7.1-2.6s5.3,1.2,7.4,2.9c15.6,14.4,36.2,32.7,48.6,50c1.5,1.8,2.1,4.1,2.1,6.5 c0,2.6-0.9,4.7-2.4,6.8c-10,13.5-20.9,26.5-30.9,40.3c5,9.4,9.1,19.1,12.1,28.8l53.9,8.2C472.5,208.2,476,212.9,476,217.9L476,217.9 z"/>
	</svg>

	<svg id="icon-blank" viewBox="0 0 500 500">
		
	</svg>

	<svg id="icon-rotate" viewBox="0 0 500 500">
		<path d="M62,307.2l10.2,117.3l29.7-32.2l9.3,8.6c40.8,37.5,93.5,56.7,148.4,54.1c54.3-2.6,104.6-26.1,141.3-65.9 C435,351.8,454,304.3,455,254.2l-71.6,2.9c-1.6,31-13.9,60.2-35.1,83.3c-23.4,25.5-58.6,41.5-94,43c-35,1.5-67.7-10.8-94.4-35.4 c-0.1-0.1-0.1-0.1-0.1-0.1l-9.3-8.5l29.3-31.8L62,307.2z M388.8,99.2C348,61.6,295.3,42.4,240.4,45.1 C186.1,47.7,135.8,71.1,99.1,111C64.9,148.2,45.9,195.7,45,245.7l71.6-3c1.6-31,13.9-60.2,35.1-83.3c23.4-25.5,58.6-41.5,94-43 c35-1.5,67.7,10.8,94.4,35.4c0.1,0.1,0.1,0.1,0.1,0.1l9.3,8.5l-29.3,31.8l117.7,0.4L427.9,75.5l-29.7,32.3L388.8,99.2z"/>
	</svg>

	<svg id="icon-previous" viewBox="0 0 500 500">
		<path d="M97.7,439.7V60.3h69.9v172.2L402.3,57.8v384.5L167.6,267.5v172.2H97.7z"/>
	</svg>

	<svg id="icon-next" viewBox="0 0 500 500">
		<path d="M402.3,60.3v379.4h-69.9V267.5L97.7,442.2V57.8l234.7,174.8V60.3H402.3z"/>
	</svg>

	<svg id="icon-to-start" viewBox="0 0 500 500">
		<path d="M40.3,439.7V60.3h69.9v172.2L285,57.8v174.8L459.7,57.8v384.5L285,267.5v174.8L110.2,267.5v172.2H40.3z"/>
	</svg>

	<svg id="icon-to-end" viewBox="0 0 500 500">
		<path d="M459.7,60.3v379.4h-69.9V267.5L215,442.2V267.5L40.3,442.2V57.8L215,232.5V57.8l174.8,174.8V60.3H459.7z"/>
	</svg>

	<svg id="icon-return" viewBox="0 0 500 500">
		<path d="M394.2,101.5v172.1l-222.9-0.3v-68.3L49.5,302.5l121.8,96.1v-69l251,0.4c0,0,0,0,0,0c7.5,0,14.6-3,19.9-8.2 c5.3-5.3,8.3-12.4,8.3-19.9V101.5H394.2z"/>
	</svg>
	
	<svg id="board" viewBox="0 0 8 8">
		<g id="a">
			<g id="b">
				<g id="c">
					<g id="d">
						<rect width="1" height="1" fill="#dfdfdf" id="e"/>
						<use x="1" y="1" href="#e"/>
						<rect y="1" width="1" height="1" fill="#8097c6" id="f"/>
						<use x="1" y="-1" href="#f"/>
					</g>
					<use x="2" href="#d"/>
				</g>
				<use x="4" href="#c"/>
			</g>
			<use y="2" href="#b"/>
		</g>
		<use y="4" href="#a"/>
	</svg>

	@import "pieces.svg"

</svg>