<svg xmlns="http://www.w3.org/2000/svg" width="0" height="0">

	<svg id="icon-undo" viewBox="0 0 13 13">
		<polygon fill="#333" points="9.2,1.6 8.5,0.8 3.5,5.8 3.5,5.8 2.8,6.5 3.5,7.2 8.5,12.2 9.2,11.4 4.2,6.5 "/>
	</svg>

	<svg id="icon-redo" viewBox="0 0 13 13">
		<polygon fill="#333" points="2.8,11.4 3.5,12.2 8.5,7.2 8.5,7.2 9.2,6.5 8.5,5.8 3.5,0.8 2.8,1.6 7.8,6.5 "/>
	</svg>

	<svg id="icon-gear" viewBox="0 0 13 13">
		<path fill="#333" d="M10.6,7c0-0.2,0-0.3,0-0.5c0-0.2,0-0.4,0-0.5l1.2-0.9c0.1-0.1,0.1-0.2,0.1-0.3l-1.1-1.9c-0.1-0.1-0.2-0.2-0.3-0.1L9,3.2
			C8.7,3,8.4,2.8,8.1,2.7L7.9,1.2C7.8,1.1,7.7,1,7.6,1H5.4C5.3,1,5.2,1.1,5.1,1.2L4.9,2.7C4.6,2.8,4.3,3,4,3.2L2.6,2.7
			c-0.1,0-0.3,0-0.3,0.1L1.2,4.7C1.1,4.8,1.2,5,1.3,5.1L2.4,6c0,0.2-0.1,0.4-0.1,0.5s0,0.4,0,0.5L1.3,7.9C1.2,8,1.1,8.2,1.2,8.3
			l1.1,1.9c0.1,0.1,0.2,0.2,0.3,0.1L4,9.8c0.3,0.2,0.6,0.4,0.9,0.5l0.2,1.5c0,0.1,0.1,0.2,0.3,0.2h2.2c0.1,0,0.3-0.1,0.3-0.2l0.2-1.5
			C8.4,10.2,8.7,10,9,9.8l1.4,0.5c0.1,0,0.3,0,0.3-0.1l1.1-1.9c0.1-0.1,0-0.3-0.1-0.3L10.6,7z M6.5,8.9c-1.3,0-2.4-1.1-2.4-2.4
			s1.1-2.4,2.4-2.4s2.4,1.1,2.4,2.4S7.8,8.9,6.5,8.9z"/>
	</svg>

	<svg id="icon-rotate" viewBox="0 0 13 13">
		<path d="M1.5,8l0.3,3.1l0.8-0.9l0.2,0.2c1.1,1,2.5,1.5,4,1.5c1.5-0.1,2.8-0.7,3.8-1.8C11.5,9.2,12,8,12,6.6l-1.9,0.1
			c0,0.8-0.4,1.6-0.9,2.2C8.5,9.6,7.6,10,6.6,10.1c-0.9,0-1.8-0.3-2.5-1c0,0,0,0,0,0L3.8,8.9L4.6,8L1.5,8z M10.2,2.5
			c-1.1-1-2.5-1.5-4-1.5C4.8,1.1,3.4,1.7,2.5,2.8C1.5,3.8,1,5,1,6.4l1.9-0.1c0-0.8,0.4-1.6,0.9-2.2C4.5,3.4,5.4,3,6.4,2.9
			c0.9,0,1.8,0.3,2.5,1c0,0,0,0,0,0l0.2,0.2L8.4,4.9l3.2,0l-0.3-3.1l-0.8,0.9L10.2,2.5z"/>
	</svg>

	<svg id="icon-previous" viewBox="0 0 13 13">
		<path d="M2.5,11.9V1.1h1.8V6l6.1-5v11L4.3,7v4.9H2.5z"/>
	</svg>

	<svg id="icon-next" viewBox="0 0 13 13">
		<path d="M10.5,1.1v10.9H8.7V7l-6.1,5V1l6.1,5V1.1H10.5z"/>
	</svg>

	<svg id="icon-to-start" viewBox="0 0 13 13">
		<path d="M1,11.9V1.1h1.8V6l4.6-5v5L12,1v11L7.4,7v5L2.8,7v4.9H1z"/>
	</svg>

	<svg id="icon-to-end" viewBox="0 0 13 13">
		<path d="M12,1.1v10.9h-1.8V7l-4.6,5V7L1,12V1l4.6,5V1l4.6,5V1.1H12z"/>
	</svg>

	<svg id="icon-return" viewBox="0 0 13 13">
		<path d="M9.7,2.9v4.2l-5,0V5.4L2,7.8l2.7,2.3V8.4l5.6,0l0,0c0.2,0,0.3-0.1,0.4-0.2C10.9,8.1,11,7.9,11,7.8V2.9H9.7z"/>
	</svg>
	
	<svg id="board" viewBox="0 0 8 8">
		<g id="a">
			<g id="b">
				<g id="c">
					<g id="d">
						<rect width="1" height="1" fill="#dfdfdf" id="e"/>
						<use x="1" y="1" href="#e"/>
						<rect y="1" width="1" height="1" fill="#8097c6" id="f"/>
						<use x="1" y="-1" href="#f"/>
					</g>
					<use x="2" href="#d"/>
				</g>
				<use x="4" href="#c"/>
			</g>
			<use y="2" href="#b"/>
		</g>
		<use y="4" href="#a"/>
	</svg>

	@import "pieces.svg"

</svg>