<svg xmlns="http://www.w3.org/2000/svg" width="0" height="0">

	<svg id="icon-undo" viewBox="0 0 500 500">
		<path fill="#333" d="M474,314c0,35-17.5,80.75-31.75,112.75c-2.75,5.75-5.5,13.75-9.25,19c-1.75,2.5-3.5,4.25-7,4.25 c-5,0-8-4-8-8.75c0-4,1-8.5,1.25-12.5c0.75-10.25,1.25-20.5,1.25-30.75c0-119.25-70.75-140-178.5-140h-56v64c0,8.75-7.25,16-16,16 c-4.25,0-8.25-1.75-11.25-4.75l-128-128c-3-3-4.75-7-4.75-11.25s1.75-8.25,4.75-11.25l128-128c3-3,7-4.75,11.25-4.75 c8.75,0,16,7.25,16,16v64h56c82,0,184,14.5,218.75,100.75C471.25,257.25,474,286,474,314z"/>
	</svg>

	<svg id="icon-redo" viewBox="0 0 500 500">
		<path fill="#333" d="M474,194c0,4.25-1.75,8.25-4.75,11.25l-128,128c-3,3-7,4.75-11.25,4.75c-8.75,0-16-7.25-16-16v-64h-56 c-107.75,0-178.5,20.75-178.5,140c0,10.25,0.5,20.5,1.25,30.75c0.25,4,1.25,8.5,1.25,12.5c0,4.75-3,8.75-8,8.75 c-3.5,0-5.25-1.75-7-4.25c-3.75-5.25-6.5-13.25-9.25-19C43.5,394.75,26,349,26,314c0-28,2.75-56.75,13.25-83.25 C74,144.5,176,130,258,130h56V66c0-8.75,7.25-16,16-16c4.25,0,8.25,1.75,11.25,4.75l128,128C472.25,185.75,474,189.75,474,194z"/>
	</svg>

	<svg id="icon-blank" viewBox="0 0 500 500">
		
	</svg>

	<svg id="icon-rotate" viewBox="0 0 500 500">
		<path d="M160.4,419.4l76.9,69.4V455H250c55.4,0,107.2-21.6,145.8-60.7c38.2-38.7,59.3-90,59.3-144.2c0-50.5-18.2-98.3-51.4-135.8
			L353,164.9c19.8,23.9,30.6,53.7,30.6,85.1c0,34.6-15,70.2-40.1,95.3c-24.8,24.8-57.1,37.9-93.4,37.9c-0.1,0-0.2,0-0.2,0l-12.6,0
			v-33.2L160.4,419.4z M250,45c-55.4,0-107.2,21.6-145.8,60.7c-38.2,38.7-59.3,90-59.3,144.2c0,50.5,18.2,98.3,51.4,135.8l50.7-50.7
			c-19.8-23.9-30.6-53.7-30.6-85.1c0-34.6,15-70.2,40.1-95.3c24.8-24.8,57.1-37.9,93.4-37.9c0.1,0,0.2,0,0.2,0l12.6,0v33.2
			l76.9-69.4l-76.9-69.4V45H250z"/>
	</svg>

	<svg id="icon-previous" viewBox="0 0 500 500">
		<path d="M127.7,439.7V60.3h69.9v172.2L372.3,57.8v384.5L197.6,267.5v172.2H127.7z"/>
	</svg>

	<svg id="icon-next" viewBox="0 0 500 500">
		<path d="M372.3,60.3v379.4h-69.9V267.5L127.7,442.2V57.8l174.8,174.8V60.3H372.3z"/>
	</svg>

	<svg id="icon-to-start" viewBox="0 0 500 500">
		<path d="M40.3,439.7V60.3h69.9v172.2L285,57.8v174.8L459.7,57.8v384.5L285,267.5v174.8L110.2,267.5v172.2H40.3z"/>
	</svg>

	<svg id="icon-to-end" viewBox="0 0 500 500">
		<path d="M459.7,60.3v379.4h-69.9V267.5L215,442.2V267.5L40.3,442.2V57.8L215,232.5V57.8l174.8,174.8V60.3H459.7z"/>
	</svg>
	
	<svg id="board" viewBox="0 0 8 8">
		<g id="a">
			<g id="b">
				<g id="c">
					<g id="d">
						<rect width="1" height="1" fill="#f0d9b5" id="e"/>
						<use x="1" y="1" href="#e"/>
						<rect y="1" width="1" height="1" fill="#b58863" id="f"/>
						<use x="1" y="-1" href="#f"/>
					</g>
				  	<use x="2" href="#d"/>
				</g>
				<use x="4" href="#c"/>
			</g>
			<use y="2" href="#b"/>
		</g>
		<use y="4" href="#a"/>
	</svg>

	<svg id="black-rook" viewBox="0 0 45 45">
		<g fill-rule="evenodd" stroke="#000" stroke-width="1.5" stroke-linecap="round" stroke-linejoin="round">
			<path d="M9 39h27v-3H9v3zm3.5-7l1.5-2.5h17l1.5 2.5h-20zm-.5 4v-4h21v4H12z" stroke-linecap="butt"/>
			<path d="M14 29.5v-13h17v13H14z" stroke-linecap="butt"/>
			<path d="M14 16.5L11 14h23l-3 2.5H14zM11 14V9h4v2h5V9h5v2h5V9h4v5H11z" stroke-linecap="butt"/>
			<path d="M12 35.5h21m-20-4h19m-18-2h17m-17-13h17M11 14h23" fill="none" stroke="#ececec" stroke-width="1"/>
		</g>
	</svg>

	<svg id="black-knight" viewBox="0 0 45 45">
		<g fill="none" fill-rule="evenodd" stroke="#000" stroke-width="1.5" stroke-linecap="round" stroke-linejoin="round">
			<path d="M22 10c10.5 1 16.5 8 16 29H15c0-9 10-6.5 8-21" fill="#000"/>
			<path d="M24 18c.38 2.91-5.55 7.37-8 9-3 2-2.82 4.34-5 4-1.042-.94 1.41-3.04 0-3-1 0 .19 1.23-1 2-1 0-4.003 1-4-4 0-2 6-12 6-12s1.89-1.9 2-3.5c-.73-.994-.5-2-.5-3 1-1 3 2.5 3 2.5h2s.78-1.992 2.5-3c1 0 1 3 1 3" fill="#000"/>
			<path d="M9.5 25.5a.5.5 0 1 1-1 0 .5.5 0 1 1 1 0zm5.433-9.75a.5 1.5 30 1 1-.866-.5.5 1.5 30 1 1 .866.5z" fill="#ececec" stroke="#ececec"/>
			<path d="M24.55 10.4l-.45 1.45.5.15c3.15 1 5.65 2.49 7.9 6.75S35.75 29.06 35.25 39l-.05.5h2.25l.05-.5c.5-10.06-.88-16.85-3.25-21.34-2.37-4.49-5.79-6.64-9.19-7.16l-.51-.1z" fill="#ececec" stroke="none"/>
		</g>
	</svg>

	<svg id="black-bishop" viewBox="0 0 45 45">
		<g fill="none" fill-rule="evenodd" stroke="#000" stroke-width="1.5" stroke-linecap="round" stroke-linejoin="round">
			<g fill="#000" stroke-linecap="butt">
				<path d="M9 36c3.39-.97 10.11.43 13.5-2 3.39 2.43 10.11 1.03 13.5 2 0 0 1.65.54 3 2-.68.97-1.65.99-3 .5-3.39-.97-10.11.46-13.5-1-3.39 1.46-10.11.03-13.5 1-1.354.49-2.323.47-3-.5 1.354-1.94 3-2 3-2z"/>
				<path d="M15 32c2.5 2.5 12.5 2.5 15 0 .5-1.5 0-2 0-2 0-2.5-2.5-4-2.5-4 5.5-1.5 6-11.5-5-15.5-11 4-10.5 14-5 15.5 0 0-2.5 1.5-2.5 4 0 0-.5.5 0 2z"/>
				<path d="M25 8a2.5 2.5 0 1 1-5 0 2.5 2.5 0 1 1 5 0z"/>
			</g>
			<path d="M17.5 26h10M15 30h15m-7.5-14.5v5M20 18h5" stroke="#ececec"/>
		</g>
	</svg>

	<svg id="black-queen" viewBox="0 0 45 45">
		<g fill-rule="evenodd" stroke="#000" stroke-width="1.5" stroke-linecap="round" stroke-linejoin="round">
			<g stroke="none">
				<circle cx="6" cy="12" r="2.75"/>
				<circle cx="14" cy="9" r="2.75"/>
				<circle cx="22.5" cy="8" r="2.75"/>
				<circle cx="31" cy="9" r="2.75"/>
				<circle cx="39" cy="12" r="2.75"/>
			</g>
			<path d="M9 26c8.5-1.5 21-1.5 27 0l2.5-12.5L31 25l-.3-14.1-5.2 13.6-3-14.5-3 14.5-5.2-13.6L14 25 6.5 13.5 9 26z" stroke-linecap="butt"/>
			<path d="M9 26c0 2 1.5 2 2.5 4 1 1.5 1 1 .5 3.5-1.5 1-1.5 2.5-1.5 2.5-1.5 1.5.5 2.5.5 2.5 6.5 1 16.5 1 23 0 0 0 1.5-1 0-2.5 0 0 .5-1.5-1-2.5-.5-2.5-.5-2 .5-3.5 1-2 2.5-2 2.5-4-8.5-1.5-18.5-1.5-27 0z" stroke-linecap="butt"/>
			<path d="M11 38.5a35 35 1 0 0 23 0" fill="none" stroke-linecap="butt"/>
			<path d="M11 29a35 35 1 0 1 23 0m-21.5 2.5h20m-21 3a35 35 1 0 0 22 0m-23 3a35 35 1 0 0 24 0" fill="none" stroke="#ececec"/>
		</g>
	</svg>

	<svg id="black-king" viewBox="0 0 45 45">
		<g fill="none" fill-rule="evenodd" stroke="#000" stroke-width="1.5" stroke-linecap="round" stroke-linejoin="round">
			<path d="M22.5 11.63V6"/>
			<path d="M22.5 25s4.5-7.5 3-10.5c0 0-1-2.5-3-2.5s-3 2.5-3 2.5c-1.5 3 3 10.5 3 10.5" fill="#000" stroke-linecap="butt"/>
			<path d="M11.5 37c5.5 3.5 15.5 3.5 21 0v-7s9-4.5 6-10.5c-4-6.5-13.5-3.5-16 4V27v-3.5c-3.5-7.5-13-10.5-16-4-3 6 5 10 5 10V37z" fill="#000"/>
			<path d="M20 8h5"/>
			<path d="M32 29.5s8.5-4 6.03-9.65C34.15 14 25 18 22.5 24.5l.01 2.1-.01-2.1C20 18 9.906 14 6.997 19.85c-2.497 5.65 4.853 9 4.853 9" stroke="#ececec"/>
			<path d="M11.5 30c5.5-3 15.5-3 21 0m-21 3.5c5.5-3 15.5-3 21 0m-21 3.5c5.5-3 15.5-3 21 0" stroke="#ececec"/>
		</g>
	</svg>

	<svg id="black-pawn" viewBox="0 0 45 45">
		<path d="M22.5 9c-2.21 0-4 1.79-4 4 0 .89.29 1.71.78 2.38C17.33 16.5 16 18.59 16 21c0 2.03.94 3.84 2.41 5.03-3 1.06-7.41 5.55-7.41 13.47h23c0-7.92-4.41-12.41-7.41-13.47 1.47-1.19 2.41-3 2.41-5.03 0-2.41-1.33-4.5-3.28-5.62.49-.67.78-1.49.78-2.38 0-2.21-1.79-4-4-4z" stroke="#000" stroke-width="1.5" stroke-linecap="round"/>
	</svg>

	<svg id="white-rook" viewBox="0 0 45 45">
		<g fill="#fff" fill-rule="evenodd" stroke="#000" stroke-width="1.5" stroke-linecap="round" stroke-linejoin="round">
			<path d="M9 39h27v-3H9v3zm3-3v-4h21v4H12zm-1-22V9h4v2h5V9h5v2h5V9h4v5" stroke-linecap="butt"/>
			<path d="M34 14l-3 3H14l-3-3"/>
			<path d="M31 17v12.5H14V17" stroke-linecap="butt"/>
			<path d="M31 29.5l1.5 2.5h-20l1.5-2.5"/>
			<path d="M11 14h23" fill="none"/>
		</g>
	</svg>

	<svg id="white-knight" viewBox="0 0 45 45">
		<g fill="none" fill-rule="evenodd" stroke="#000" stroke-width="1.5" stroke-linecap="round" stroke-linejoin="round">
			<path d="M22 10c10.5 1 16.5 8 16 29H15c0-9 10-6.5 8-21" fill="#fff"/>
			<path d="M24 18c.38 2.91-5.55 7.37-8 9-3 2-2.82 4.34-5 4-1.042-.94 1.41-3.04 0-3-1 0 .19 1.23-1 2-1 0-4.003 1-4-4 0-2 6-12 6-12s1.89-1.9 2-3.5c-.73-.994-.5-2-.5-3 1-1 3 2.5 3 2.5h2s.78-1.992 2.5-3c1 0 1 3 1 3" fill="#fff"/>
			<path d="M9.5 25.5a.5.5 0 1 1-1 0 .5.5 0 1 1 1 0zm5.433-9.75a.5 1.5 30 1 1-.866-.5.5 1.5 30 1 1 .866.5z" fill="#000"/>
		</g>
	</svg>

	<svg id="white-bishop" viewBox="0 0 45 45">
		<g fill="none" fill-rule="evenodd" stroke="#000" stroke-width="1.5" stroke-linecap="round" stroke-linejoin="round">
			<g fill="#fff" stroke-linecap="butt">
				<path d="M9 36c3.39-.97 10.11.43 13.5-2 3.39 2.43 10.11 1.03 13.5 2 0 0 1.65.54 3 2-.68.97-1.65.99-3 .5-3.39-.97-10.11.46-13.5-1-3.39 1.46-10.11.03-13.5 1-1.354.49-2.323.47-3-.5 1.354-1.94 3-2 3-2z"/>
				<path d="M15 32c2.5 2.5 12.5 2.5 15 0 .5-1.5 0-2 0-2 0-2.5-2.5-4-2.5-4 5.5-1.5 6-11.5-5-15.5-11 4-10.5 14-5 15.5 0 0-2.5 1.5-2.5 4 0 0-.5.5 0 2z"/>
				<path d="M25 8a2.5 2.5 0 1 1-5 0 2.5 2.5 0 1 1 5 0z"/>
			</g>
			<path d="M17.5 26h10M15 30h15m-7.5-14.5v5M20 18h5"/>
		</g>
	</svg>

	<svg id="white-queen" viewBox="0 0 45 45">
		<g fill="#fff" fill-rule="evenodd" stroke="#000" stroke-width="1.5" stroke-linecap="round" stroke-linejoin="round">
			<path d="M8 12a2 2 0 1 1-4 0 2 2 0 1 1 4 0zm16.5-4.5a2 2 0 1 1-4 0 2 2 0 1 1 4 0zM41 12a2 2 0 1 1-4 0 2 2 0 1 1 4 0zM16 8.5a2 2 0 1 1-4 0 2 2 0 1 1 4 0zM33 9a2 2 0 1 1-4 0 2 2 0 1 1 4 0z"/>
			<path d="M9 26c8.5-1.5 21-1.5 27 0l2-12-7 11V11l-5.5 13.5-3-15-3 15-5.5-14V25L7 14l2 12z" stroke-linecap="butt"/>
			<path d="M9 26c0 2 1.5 2 2.5 4 1 1.5 1 1 .5 3.5-1.5 1-1.5 2.5-1.5 2.5-1.5 1.5.5 2.5.5 2.5 6.5 1 16.5 1 23 0 0 0 1.5-1 0-2.5 0 0 .5-1.5-1-2.5-.5-2.5-.5-2 .5-3.5 1-2 2.5-2 2.5-4-8.5-1.5-18.5-1.5-27 0z" stroke-linecap="butt"/>
			<path d="M11.5 30c3.5-1 18.5-1 22 0M12 33.5c6-1 15-1 21 0" fill="none"/>
		</g>
	</svg>

	<svg id="white-king" viewBox="0 0 45 45">
		<g fill="none" fill-rule="evenodd" stroke="#000" stroke-width="1.5" stroke-linecap="round" stroke-linejoin="round">
			<path d="M22.5 11.63V6M20 8h5"/>
			<path d="M22.5 25s4.5-7.5 3-10.5c0 0-1-2.5-3-2.5s-3 2.5-3 2.5c-1.5 3 3 10.5 3 10.5" fill="#fff" stroke-linecap="butt"/>
			<path d="M11.5 37c5.5 3.5 15.5 3.5 21 0v-7s9-4.5 6-10.5c-4-6.5-13.5-3.5-16 4V27v-3.5c-3.5-7.5-13-10.5-16-4-3 6 5 10 5 10V37z" fill="#fff"/>
			<path d="M11.5 30c5.5-3 15.5-3 21 0m-21 3.5c5.5-3 15.5-3 21 0m-21 3.5c5.5-3 15.5-3 21 0"/>
		</g>
	</svg>

	<svg id="white-pawn" viewBox="0 0 45 45">
		<path d="M22.5 9c-2.21 0-4 1.79-4 4 0 .89.29 1.71.78 2.38C17.33 16.5 16 18.59 16 21c0 2.03.94 3.84 2.41 5.03-3 1.06-7.41 5.55-7.41 13.47h23c0-7.92-4.41-12.41-7.41-13.47 1.47-1.19 2.41-3 2.41-5.03 0-2.41-1.33-4.5-3.28-5.62.49-.67.78-1.49.78-2.38 0-2.21-1.79-4-4-4z" fill="#fff" stroke="#000" stroke-width="1.5" stroke-linecap="round"/>
	</svg>

</svg>