<svg xmlns="http://www.w3.org/2000/svg" width="0" height="0">

	<svg id="icon-undo" viewBox="0 0 13 13">
		<polygon fill="#333" points="9.2,1.6 8.5,0.8 3.5,5.8 3.5,5.8 2.8,6.5 3.5,7.2 8.5,12.2 9.2,11.4 4.2,6.5 "/>
	</svg>

	<svg id="icon-redo" viewBox="0 0 13 13">
		<polygon fill="#333" points="2.8,11.4 3.5,12.2 8.5,7.2 8.5,7.2 9.2,6.5 8.5,5.8 3.5,0.8 2.8,1.6 7.8,6.5 "/>
	</svg>

	<svg id="icon-gear" viewBox="0 0 13 13">
		<path fill="#333" d="M10.6,7c0-0.2,0-0.3,0-0.5c0-0.2,0-0.4,0-0.5l1.2-0.9c0.1-0.1,0.1-0.2,0.1-0.3l-1.1-1.9c-0.1-0.1-0.2-0.2-0.3-0.1L9,3.2 C8.7,3,8.4,2.8,8.1,2.7L7.9,1.2C7.8,1.1,7.7,1,7.6,1H5.4C5.3,1,5.2,1.1,5.1,1.2L4.9,2.7C4.6,2.8,4.3,3,4,3.2L2.6,2.7 c-0.1,0-0.3,0-0.3,0.1L1.2,4.7C1.1,4.8,1.2,5,1.3,5.1L2.4,6c0,0.2-0.1,0.4-0.1,0.5s0,0.4,0,0.5L1.3,7.9C1.2,8,1.1,8.2,1.2,8.3 l1.1,1.9c0.1,0.1,0.2,0.2,0.3,0.1L4,9.8c0.3,0.2,0.6,0.4,0.9,0.5l0.2,1.5c0,0.1,0.1,0.2,0.3,0.2h2.2c0.1,0,0.3-0.1,0.3-0.2l0.2-1.5 C8.4,10.2,8.7,10,9,9.8l1.4,0.5c0.1,0,0.3,0,0.3-0.1l1.1-1.9c0.1-0.1,0-0.3-0.1-0.3L10.6,7z M6.5,8.9c-1.3,0-2.4-1.1-2.4-2.4 s1.1-2.4,2.4-2.4s2.4,1.1,2.4,2.4S7.8,8.9,6.5,8.9z"/>
	</svg>

	<svg id="icon-rotate" viewBox="0 0 13 13">
		<path d="M1.5,8l0.3,3.1l0.8-0.9l0.2,0.2c1.1,1,2.5,1.5,4,1.5c1.5-0.1,2.8-0.7,3.8-1.8C11.5,9.2,12,8,12,6.6l-1.9,0.1
			c0,0.8-0.4,1.6-0.9,2.2C8.5,9.6,7.6,10,6.6,10.1c-0.9,0-1.8-0.3-2.5-1c0,0,0,0,0,0L3.8,8.9L4.6,8L1.5,8z M10.2,2.5
			c-1.1-1-2.5-1.5-4-1.5C4.8,1.1,3.4,1.7,2.5,2.8C1.5,3.8,1,5,1,6.4l1.9-0.1c0-0.8,0.4-1.6,0.9-2.2C4.5,3.4,5.4,3,6.4,2.9
			c0.9,0,1.8,0.3,2.5,1c0,0,0,0,0,0l0.2,0.2L8.4,4.9l3.2,0l-0.3-3.1l-0.8,0.9L10.2,2.5z"/>
	</svg>

	<svg id="icon-previous" viewBox="0 0 13 13">
		<path d="M2.5,11.9V1.1h1.8V6l6.1-5v11L4.3,7v4.9H2.5z"/>
	</svg>

	<svg id="icon-next" viewBox="0 0 13 13">
		<path d="M10.5,1.1v10.9H8.7V7l-6.1,5V1l6.1,5V1.1H10.5z"/>
	</svg>

	<svg id="icon-to-start" viewBox="0 0 13 13">
		<path d="M1,11.9V1.1h1.8V6l4.6-5v5L12,1v11L7.4,7v5L2.8,7v4.9H1z"/>
	</svg>

	<svg id="icon-to-end" viewBox="0 0 13 13">
		<path d="M12,1.1v10.9h-1.8V7l-4.6,5V7L1,12V1l4.6,5V1l4.6,5V1.1H12z"/>
	</svg>

	<svg id="icon-return" viewBox="0 0 13 13">
		<path d="M9.7,2.9v4.2l-5,0V5.4L2,7.8l2.7,2.3V8.4l5.6,0l0,0c0.2,0,0.3-0.1,0.4-0.2C10.9,8.1,11,7.9,11,7.8V2.9H9.7z"/>
	</svg>

	<svg id="icon-cpu" viewBox="0 0 53 53">
		<style type="text/css">
			.st0{fill:none;stroke:#333;stroke-width:2;stroke-miterlimit:10;}
		</style>
		<path class="st0" d="M35,37.1H18c-1.2,0-2.1-1-2.1-2.1V18c0-1.2,1-2.1,2.1-2.1H35c1.2,0,2.1,1,2.1,2.1V35 C37.1,36.1,36.1,37.1,35,37.1z"/>
		<circle class="st0" cx="15.9" cy="6" r="2.7"/>
		<circle class="st0" cx="26.5" cy="6" r="2.7"/>
		<circle class="st0" cx="37.1" cy="6" r="2.7"/>
		<polyline class="st0" points="19.6,15.9 19.6,9.6 17.8,7.9 "/>
		<line class="st0" x1="26.5" y1="15.9" x2="26.5" y2="8.7"/>
		<polyline class="st0" points="33.6,15.9 33.6,9.7 35.3,8 "/>
		<circle class="st0" cx="15.9" cy="47" r="2.7"/>
		<circle class="st0" cx="26.5" cy="47" r="2.7"/>
		<circle class="st0" cx="37.1" cy="47" r="2.7"/>
		<polyline class="st0" points="19.6,37.1 19.6,43.4 17.8,45.1 "/>
		<line class="st0" x1="26.5" y1="37.1" x2="26.5" y2="44.3"/>
		<polyline class="st0" points="33.6,37.1 33.6,43.3 35.3,45 "/>
		<circle class="st0" cx="47" cy="15.9" r="2.7"/>
		<circle class="st0" cx="47" cy="26.5" r="2.7"/>
		<circle class="st0" cx="47" cy="37.1" r="2.7"/>
		<polyline class="st0" points="37.1,19.6 43.4,19.6 45.1,17.8 "/>
		<line class="st0" x1="37.1" y1="26.5" x2="44.3" y2="26.5"/>
		<polyline class="st0" points="37.1,33.6 43.3,33.6 45,35.3 "/>
		<circle class="st0" cx="6" cy="15.9" r="2.7"/>
		<circle class="st0" cx="6" cy="26.5" r="2.7"/>
		<circle class="st0" cx="6" cy="37.1" r="2.7"/>
		<polyline class="st0" points="15.9,19.6 9.6,19.6 7.9,17.8 "/>
		<line class="st0" x1="15.9" y1="26.5" x2="8.7" y2="26.5"/>
		<polyline class="st0" points="15.9,33.6 9.7,33.6 8,35.3 "/>
	</svg>

	<svg id="icon-user" viewBox="0 0 53 53">
		<style type="text/css">
			.st0{fill:#333;fill-rule:evenodd;clip-rule:evenodd;}
		</style>
		<path class="st0" d="M26.5,2c-6.8,0-12.3,5.5-12.3,12.3c0,3.4,1.1,8,3.2,11.6c2.1,3.6,5.1,6.2,9.2,6.2c4,0,7.1-2.6,9.2-6.2
			c2.1-3.6,3.2-8.1,3.2-11.6C38.8,7.5,33.3,2,26.5,2z"/>
		<path class="st0" d="M33.2,31.2c-1.9,1.5-4.1,2.4-6.6,2.4c-2.5,0-4.7-0.9-6.5-2.3c-0.1,0.4-0.2,0.7-0.4,1c-0.3,0.6-0.8,1.2-1.5,1.4
			c-2.1,0.8-5.7,1-9.1,2c-3.2,1-6.1,2.7-7,6.2c13.6,12,35.6,12,49.2,0c-0.9-3.5-3.8-5.2-7-6.2c-3.4-1.1-7-1.2-9.1-2
			c-0.7-0.3-1.2-0.8-1.5-1.5C33.3,32,33.2,31.6,33.2,31.2L33.2,31.2z"/>
	</svg>

	<svg id="icon-friend" viewBox="0 0 53 53">
		<style type="text/css">
			.st0{fill:#333;fill-rule:evenodd;clip-rule:evenodd;}
		</style>
		<path class="st0" d="M31.3,7c-5.4,0-9.9,4.4-9.9,9.8c0,2.7,0.8,6.4,2.5,9.2c1.7,2.9,4.1,5,7.3,5c3.2,0,5.7-2.1,7.3-5
			c1.7-2.9,2.5-6.5,2.5-9.2C41.1,11.4,36.7,7,31.3,7z"/>
		<path class="st0" d="M17.6,7.6c-4.3,0-7.7,3.4-7.7,7.7c0,2.1,0.7,5,2,7.3c1.3,2.3,3.2,3.9,5.7,3.9c1.7,0,3.1-0.7,4.3-2
			c-1.1-2.6-1.6-5.4-1.6-7.7c0-2.7,1-5.2,2.6-7.1C21.5,8.4,19.6,7.6,17.6,7.6L17.6,7.6z"/>
		<path class="st0" d="M22.4,25.6c-1.3,1.2-2.9,2-4.8,2c-1.6,0-2.9-0.5-4.1-1.4c-0.1,0.2-0.1,0.3-0.2,0.5c-0.2,0.4-0.6,0.8-1,1h0
			c0,0,0,0,0,0c-1.4,0.5-3.7,0.6-5.8,1.3c-2,0.6-3.8,1.6-4.4,3.8c2.6,2.2,5.6,3.8,8.8,4.7c1.1-2.6,3.6-3.9,6-4.7
			c2.9-0.9,5.9-1.1,7.2-1.6c0.2-0.1,0.4-0.3,0.6-0.6c0.1-0.3,0.3-0.7,0.3-1.2c-0.8-0.8-1.5-1.8-2.1-2.8C22.7,26.3,22.5,26,22.4,25.6
			L22.4,25.6z"/>
		<path class="st0" d="M36.6,30.3c-1.5,1.2-3.3,1.9-5.3,1.9c-2,0-3.8-0.7-5.2-1.9c-0.1,0.3-0.2,0.6-0.3,0.8c-0.3,0.5-0.7,0.9-1.2,1.1
			c-1.7,0.6-4.6,0.8-7.3,1.6c-2.6,0.8-4.9,2.1-5.6,4.9c10.8,9.5,28.4,9.5,39.3,0c-0.7-2.8-3-4.1-5.6-4.9c-2.7-0.8-5.6-1-7.3-1.6
			c-0.5-0.2-0.9-0.7-1.2-1.2C36.7,30.9,36.7,30.6,36.6,30.3L36.6,30.3z"/>
	</svg>
	
	<svg id="board" viewBox="0 0 8 8">
		<g id="a">
			<g id="b">
				<g id="c">
					<g id="d">
						<rect width="1" height="1" fill="#dfdfdf" id="e"/>
						<use x="1" y="1" href="#e"/>
						<rect y="1" width="1" height="1" fill="#8097c6" id="f"/>
						<use x="1" y="-1" href="#f"/>
					</g>
					<use x="2" href="#d"/>
				</g>
				<use x="4" href="#c"/>
			</g>
			<use y="2" href="#b"/>
		</g>
		<use y="4" href="#a"/>
	</svg>

	@import "pieces.svg"

</svg>