
<svg id="white-pawn" viewBox="0 0 78 78">
	<style type="text/css">
	.st0{fill:#f5f5f5;}
	.st1{fill:#aaa;}
	.st2{fill:none;stroke:#222;stroke-width:2;}
	.st3{fill:#555;}
	.st4{fill:#404040;}
	</style>
	<path class="st0" d="M18.7,71.5c0-5.6,1.9-10.3,7.5-14.1c4.9-3.3,7-5.9,6.1-12.2h-3.4l-2.8-1.9v-2.8l8.1-3.1 c-3-1.7-5.1-4.9-5.1-8.6c0-5.4,4.4-9.8,9.8-9.8s9.8,4.4,9.8,9.8c0,3.7-2,6.9-5.1,8.6l8.1,3.1v2.8l-2.8,1.9h-3.4 c-0.9,6.3,1.2,8.9,6.1,12.2c5.6,3.7,7.5,8.4,7.5,14.1C54.6,71.5,23.4,71.5,18.7,71.5z"/>
	<path class="st1" d="M59.2,71.5c0-0.5,0-0.9,0-1.3c0,0,0-0.1,0-0.1c-0.3-5-2.3-9.2-7.4-12.6c-4.9-3.3-7-5.9-6.1-12.2h3.4l2.8-1.9 v-2.8l-8.1-3.1c3-1.7,5.1-4.9,5.1-8.6c0-5.4-4.4-9.8-9.8-9.8c13.6,2.5,10,18.4-1.6,18.4c4.6,0,9.3,0.9,9.7,3.3 c0.3,1.3-0.5,4-5.3,4.1c-4.3,0.1-4.9,0.2-7.1,0.1c15.4,0.9,2.1,8.9,9.9,11.1c4,1.1,11.1,3.5,7,15.5C53.2,71.5,57.4,71.5,59.2,71.5 L59.2,71.5L59.2,71.5z"/>
	<path class="st2" d="M18.7,71.5c0-5.6,1.9-10.3,7.5-14.1c4.9-3.3,7-5.9,6.1-12.2h-3.4l-2.8-1.9v-2.8l8.1-3.1 c-3-1.7-5.1-4.9-5.1-8.6c0-5.4,4.4-9.8,9.8-9.8s9.8,4.4,9.8,9.8c0,3.7-2,6.9-5.1,8.6l8.1,3.1v2.8l-2.8,1.9h-3.4 c-0.9,6.3,1.2,8.9,6.1,12.2c5.6,3.7,7.5,8.4,7.5,14.1C54.6,71.5,23.4,71.5,18.7,71.5z"/>
</svg>

<svg id="white-knight" viewBox="0 0 78 78">
	<style type="text/css">
	.st0{fill:#f5f5f5;}
	.st1{fill:#aaa;}
	.st2{fill:none;stroke:#222;stroke-width:2;}
	.st3{fill:#555;}
	.st4{fill:#404040;}
	</style>
	<path class="st0" d="M59.1,58.9c1.1-6.4,4.3-19.2,0.3-30.1c-4.6-12.7-20.8-13-21.3-13.8c-0.5-0.7-5-6.3-7.7-6 c-2.8,0.2,0.1,5-1.7,5.9c-1.2,0.5-6.1,5.4-6.8,7.3c-0.5,1.4,0.3,2.7-0.9,5.4c-1.2,2.7-8.3,9.5-8.4,13.7c-0.1,4,9.4,6.6,10.9,5.9 c1.2-0.5,2.7-4.7,3.5-5.4c0.8-0.7,2.4-0.4,4.2-0.3c1.9,0.1,5-2.8,5.7-3.4c1.1-0.9,0.7-2.3,1.9-2.7c1.1-0.4,1,1.3,1.1,3.8 c0.2,2.5-5.4,8.1-9.5,11c-3.6,2.6-5.1,5.8-4.9,8.9c-2.5,0.7-5.9,3-5.9,5.1v7.4h45.7v-7.4C65.3,62,61.6,59.5,59.1,58.9z"/>
	<path class="st1" d="M32.5,22c-1.1-0.4-4.5,2.6-4.8,4.1c-0.3,1.6,6.7,1.4,7.3-0.9C35.4,24.1,34.2,22.6,32.5,22z"/>
	<path d="M32.6,22.3c-1.1-0.4-5.2,3.3-3.8,3.6s5.4,0.2,5.6-0.9C34.5,23.8,34.3,22.8,32.6,22.3z"/>
	<path class="st1" d="M58.4,71.5h6.9v-7.4c0-2.1-3.8-4.7-6.3-5.2c1.1-6.4,4.3-19.2,0.3-30.1c-4.6-12.7-20.8-13-21.3-13.8 c-0.5-0.7-5-6.3-7.7-6c3.2,0.8,6.6,6.3,6.2,6.9C46.8,15.8,57,25.4,56,36c-1,10.5-8.7,17.2-9.4,19.6c-0.7,2.4-2.3,3-11,3.3 C59.8,58.3,62.9,60.8,58.4,71.5z"/>
	<path class="st1" d="M30.5,50.2c4.1-2.9,9.7-8.5,9.5-11c-0.2-2.5,0-4.2-1.1-3.8c-1.1,0.4-0.8,1.8-1.9,2.7c-0.7,0.6-3.9,3.5-5.7,3.4 c-1.9-0.1-3.4-0.3-4.2,0.3c-0.8,0.7-2.3,4.9-3.5,5.4c-1.6,0.6-11-2-10.9-5.9c2.9,6.6,14,5.1,12.1-0.5c-1.2-3.7,2.6-1.7,3.9-0.9 c1.3,0.8,5,1.2,7.2-2.2c2.2-3.4,3.2-4.9,4.6-5.6c1.4-0.7,0.6-3.4,1.4-2.8c0.8,0.7,2.3,3.8,0.4,9.2C40.2,43.9,32.2,48.8,30.5,50.2z" />
	<path class="st2" d="M59.1,58.9c1.1-6.4,4.3-19.2,0.3-30.1c-4.6-12.7-20.8-13-21.3-13.8c-0.5-0.7-5-6.3-7.7-6 c-2.8,0.2,0.1,5-1.7,5.9c-1.2,0.5-6.1,5.4-6.8,7.3c-0.5,1.4,0.3,2.7-0.9,5.4c-1.2,2.7-8.3,9.5-8.4,13.7c-0.1,4,9.4,6.6,10.9,5.9 c1.2-0.5,2.7-4.7,3.5-5.4c0.8-0.7,2.4-0.4,4.2-0.3c1.9,0.1,5-2.8,5.7-3.4c1.1-0.9,0.7-2.3,1.9-2.7c1.1-0.4,1,1.3,1.1,3.8 c0.2,2.5-5.4,8.1-9.5,11c-3.6,2.6-5.1,5.8-4.9,8.9c-2.5,0.7-5.9,3-5.9,5.1v7.4h45.7v-7.4C65.3,62,61.6,59.5,59.1,58.9z"/>
</svg>

<svg id="white-bishop" viewBox="0 0 78 78">
	<style type="text/css">
	.st0{fill:#f5f5f5;}
	.st1{fill:#aaa;}
	.st2{fill:none;stroke:#222;stroke-width:2;}
	.st3{fill:#555;}
	.st4{fill:#404040;}
	</style>
	<path class="st0" d="M54.7,58.6h-5.7c5-4.1,8.3-10.9,8.3-17.3c0-6.5-4.3-15-9.4-20.1c-5,6.6-5,14.4-5,19.5h-6.6 c0-6.3,0-17.4,8.7-26.2c0.1-0.5,0.2-1.1,0.2-1.6c0-3.4-2.8-6.2-6.2-6.2s-6.2,2.8-6.2,6.2c0,1.9,0.9,3.6,2.2,4.7 c-7.1,3.5-14.2,15.3-14.2,23.8c0,6.4,3.3,13.2,8.3,17.3h-5.7c-2.4,0-7.1,2.9-7.1,5.3v7.4h45.7v-7.4C61.8,61.5,57.1,58.6,54.7,58.6z "/>
	<path class="st1" d="M35.8,41.4c0-6.3,0.5-17.8,9.2-26.7c0.1-0.5,0.2-1.1,0.2-1.6c0-3.4-2.8-6.2-6.2-6.2c4.1,0.6,5,6.1,3.7,8.7 c-1.6,3.3-10.1,11.8-10.2,19.3C32.5,38.6,34.2,41.2,35.8,41.4z"/>
	<path class="st1" d="M47.8,21.4c5.9,7.9,6.6,16.7,6.7,19.4c0.2,9.4-7.5,18.5-19.7,18.5c21.2,0,25.6,3.9,21.7,12.1l5.4,0.1v-7.4 c0-2.4-4.7-5.3-7.1-5.3h-5.7c5-4.1,8.3-10.9,8.3-17.3C57.3,35.1,53,26.6,47.8,21.4z"/>
	<path class="st2" d="M54.7,58.8h-5.7c5-4.1,8.3-10.9,8.3-17.3c0-6.5-4.3-15-9.4-20.1c-5,6.6-5,14.4-5,19.5h-6.6 c0-6.3,0-17.4,8.7-26.2c0.1-0.5,0.2-1.1,0.2-1.6c0-3.4-2.8-6.2-6.2-6.2s-6.2,2.8-6.2,6.2c0,1.9,0.9,3.6,2.2,4.7 c-7.1,3.5-14.2,15.3-14.2,23.8c0,6.4,3.3,13.2,8.3,17.3h-5.7c-2.4,0-7.1,2.9-7.1,5.3v7.4h45.7v-7.4C61.8,61.7,57.1,58.8,54.7,58.8z "/>
</svg>

<svg id="white-rook" viewBox="0 0 78 78">
	<style type="text/css">
	.st0{fill:#f5f5f5;}
	.st1{fill:#aaa;}
	.st2{fill:none;stroke:#222;stroke-width:2;}
	.st3{fill:#555;}
	.st4{fill:#404040;}
	</style>
	<path class="st0" d="M54.8,58.9l-2.4-26.4c2.9-0.2,5.3-2.5,5.5-5.4l1.3-9.9c0.1-0.9-0.5-1.7-1.4-1.8L52,14.6 c-0.9-0.1-1.7,0.5-1.8,1.4l-1.6,5.6h-4.1v-6.6c0-0.8-0.7-1.5-1.5-1.5h-7.8c-0.8,0-1.5,0.7-1.5,1.5v6.5h-4L28.1,16 c-0.1-0.9-0.9-1.5-1.8-1.4l-5.8,0.8c-0.9,0.1-1.5,0.9-1.4,1.8l1.3,10c0,0,0,0.1,0,0.1v0l0,0c0.3,2.7,2.4,4.8,5,5.2l-2.4,26.4 c-2.4,0.1-7,2.9-7,5.3v7.4h45.7v-7.4C61.8,61.8,57.2,58.9,54.8,58.9z"/>
	<path class="st1" d="M29.7,21.6L28.1,16c-0.1-0.9-0.9-1.5-1.8-1.4l-5.8,0.8c6.3-0.6,8,3.5,9.1,6.2H29.7z"/>
	<path class="st1" d="M44.5,21.8v-6.7c0-0.8-0.7-1.5-1.5-1.5h-7.8C39.2,13.5,43.9,15,44.5,21.8L44.5,21.8z"/>
	<path class="st1" d="M56.2,71.5h5.7v-7.4c0-2.4-4.7-5.2-7.1-5.3l-2.4-26.4c2.9-0.2,5.3-2.5,5.5-5.4l1.3-9.9 c0.1-0.9-0.5-1.7-1.4-1.8L52,14.6c7,0.6,4.6,7.8,4.5,9.8c-0.4,7-13.1,8-25.8,8c23,0,18.4,8,19.6,17.4c0.9,6.7-1,9.1-16.6,9.1 c20-0.1,24.1,4,24.1,8C57.7,69.5,56.2,71.5,56.2,71.5z"/>
	<path class="st2" d="M54.8,58.9l-2.4-26.4c2.9-0.2,5.3-2.5,5.5-5.4l1.3-9.9c0.1-0.9-0.5-1.7-1.4-1.8L52,14.6 c-0.9-0.1-1.7,0.5-1.8,1.4l-1.6,5.6h-4.1v-6.6c0-0.8-0.7-1.5-1.5-1.5h-7.8c-0.8,0-1.5,0.7-1.5,1.5v6.5h-4L28.1,16 c-0.1-0.9-0.9-1.5-1.8-1.4l-5.8,0.8c-0.9,0.1-1.5,0.9-1.4,1.8l1.3,10c0,0,0,0.1,0,0.1v0l0,0c0.3,2.7,2.4,4.8,5,5.2l-2.4,26.4 c-2.4,0.1-7,2.9-7,5.3v7.4h45.7v-7.4C61.8,61.8,57.2,58.9,54.8,58.9z"/>
</svg>

<svg id="white-king" viewBox="0 0 78 78">
	<style type="text/css">
	.st0{fill:#f5f5f5;}
	.st1{fill:#aaa;}
	.st2{fill:none;stroke:#222;stroke-width:2;}
	.st3{fill:#555;}
	.st4{fill:#404040;}
	</style>
	<path class="st0" d="M70,39.8C70,33.3,64.7,28,58.3,28c-4.2,0-7.8,2.2-9.9,5.6c-1.2-2.8-2.8-5.1-4.7-6.5l-1.4-8.3l6.5,0.9v-7.7 l-6.5,0.9l0.9-6.4h-8.5l0.9,6.4l-6-0.9v7.7l6-0.9l-1.4,8.2c-1.9,1.4-3.5,3.5-4.7,6.3c-2.1-3.1-5.6-5.1-9.6-5.1 C13.3,27.9,8,33.3,8,39.8c0,6.5,7.1,14.6,13.5,14.7l0.7,4.5c-2.5,0.6-6.1,3-6.1,5.1v7.4h45.6v-7.4c0-2.1-3.6-4.5-6.1-5.1l0.7-4.5 C62.9,54.5,70,46.4,70,39.8z"/>
	<path class="st1" d="M29.5,34.1c-1.1-3.6-5.8-6-9.8-6.1c3.7,0.6,8,4.6,9.2,10.1C29.1,35,29.5,34.1,29.5,34.1z"/>
	<path class="st1" d="M48.6,33.9c-1.2-2.8-3.1-5.5-5-6.9l-1.9-8.8c-1.1-0.1-0.6,1.6-0.1,4.2c0.7,3.3-1.7,3.9-3.4,4.4 c6.1-0.2,8.9,7.1,8.7,11.2C47.9,34.7,48.6,33.9,48.6,33.9z"/>
	<path class="st1" d="M23.9,53.9c2.8-1,6.7-1.6,10.1-1.2c-1.9-1-3.9-2.7-4.6-7.9C29.6,50.6,28.3,52.1,23.9,53.9z"/>
	<path class="st1" d="M70,39.8C70,33.3,64.7,28,58.3,28c8.5,1.6,8.7,8,8.9,10.6c0.6,8-5.5,14.3-18.4,14.5c-2.1-1.3-2.6-3.1-2.5-7.5 c-0.7,5.3-2.6,6.3-4.4,7.3c1.1,0,2.2,0,3.3,0.1c0.2,0,0.5,0.1,0.7,0.1c2,0.3,3.9,0.8,5.6,1.3c5.5,3.3-0.1,4.6-20.1,4.7 c20-0.1,27.7,2.8,22.7,12.5h7.7v-7.4c0-2.1-3.6-4.5-6.1-5.1l0.7-4.5C62.9,54.5,70,46.4,70,39.8z"/>
	<path class="st2" d="M70,39.8C70,33.3,64.7,28,58.3,28c-4.2,0-7.8,2.2-9.9,5.6c-1.2-2.8-2.8-5.1-4.7-6.5l-1.4-8.3l6.5,0.9v-7.7 l-6.5,0.9l0.9-6.4h-8.5l0.9,6.4l-6-0.9v7.7l6-0.9l-1.4,8.2c-1.9,1.4-3.5,3.5-4.7,6.3c-2.1-3.1-5.6-5.1-9.6-5.1 C13.3,27.9,8,33.3,8,39.8c0,6.5,7.1,14.6,13.5,14.7l0.7,4.5c-2.5,0.6-6.1,3-6.1,5.1v7.4h45.6v-7.4c0-2.1-3.6-4.5-6.1-5.1l0.7-4.5 C62.9,54.5,70,46.4,70,39.8z"/>
</svg>

<svg id="white-queen" viewBox="0 0 78 78">
	<style type="text/css">
	.st0{fill:#f5f5f5;}
	.st1{fill:#aaa;}
	.st2{fill:none;stroke:#222;stroke-width:2;}
	.st3{fill:#555;}
	.st4{fill:#404040;}
	</style>
	<path class="st0" d="M39,8.5c3.9,0,7,3.1,7,7c0,2.6-1.4,4.9-3.5,6.1l7.2,13l9-2.9C58.3,31,58,30,58,29c0-3.3,2.7-6,6-6 c3.3,0,6,2.7,6,6s-2.7,6-6,6c-0.2,0-0.4,0-0.7,0l-0.5,7c-7.8,4.6-8.6,8.8-9.3,16.8h1c2.4,0,7.1,2.9,7.1,5.3v7.4H39H16.1v-7.4 c0-2.4,4.7-5.3,7.1-5.3h1c-0.7-8.1-1.4-12.2-9.3-16.8l-0.4-7c-0.2,0-0.4,0-0.7,0c-3.3,0-6-2.7-6-6c0-3.3,2.7-6,6-6s6,2.7,6,6 c0,1-0.3,2-0.7,2.8l9,2.9l7.2-13c-2.1-1.2-3.5-3.5-3.5-6.1C31.9,11.7,35.1,8.5,39,8.5z"/>
	<path class="st1" d="M39,8.9c3.9,0,7,2.8,7,6.7c0,2.6-1.4,4.9-3.5,6.1l6.9,13.5c0,0-2.1,1.6-7.4,2.9c6.7-3.1,0.3-16.4,0.3-16.4 s-1.8,0.6-4.6,0.2c3.6,0.1,6.1-3.9,6.2-6.4C44.1,12.3,43.1,9.7,39,8.9z"/>
	<path class="st1" d="M19,31.9c0.4-0.8,0.9-1.9,0.9-2.9c0-3.3-2.7-5.5-6-5.5c2.6,0.5,4,2.2,4.3,4.8c0.2,2-0.3,3.5-2,5.6 C18.4,33.2,19,31.9,19,31.9z"/>
	<path class="st1" d="M64,23c2.5,0.9,3.9,3.2,3.9,5.7c0,2.7-3,5.1-6.6,4.7c1,0.9,1.6,1.2,1.6,1.2c-0.6,7.1-7.3,11.2-13,11.4 c3.3-0.2,6.6,12.9-2.5,12.9c-2.6,0.3-4.6-1.8-4.7-2.8c-0.3,2.8-3,3.1-5.3,3c-2.3,0-4.7-0.7-4.9-3.9c0.1,3.5-1,3.8-4.7,4.1 c4.5,0,8.1,0,10.9,0c-0.7,0-1.4,0-2.2,0c11.7,0,22.6-0.4,19.2,12.1h6.1v-7.4c0-2.4-4.7-5.3-7.1-5.3h-1c0.7-8.1,1.4-12.2,9.3-16.8 l0.5-7.1c0.2,0,0.4,0.1,0.6,0.1c3.3,0,6-2.7,6-6C70,25.7,67.3,23,64,23z"/>
	<path class="st1" d="M22.8,44.3c13.9,4,18.9,2.4,24.6,1.9c-5.1,0.7-4.8,5.8-4.7,6.6c-0.2-6.6-9.3-8.3-10-0.5 C32.6,46.5,29.1,46.3,22.8,44.3z"/>
	<path class="st2" d="M39,8.5c3.9,0,7,3.1,7,7c0,2.6-1.4,4.9-3.5,6.1l7.2,13l9-2.9C58.3,31,58,30,58,29c0-3.3,2.7-6,6-6 c3.3,0,6,2.7,6,6s-2.7,6-6,6c-0.2,0-0.4,0-0.7,0l-0.5,7c-7.8,4.6-8.6,8.8-9.3,16.8h1c2.4,0,7.1,2.9,7.1,5.3v7.4H39H16.1v-7.4 c0-2.4,4.7-5.3,7.1-5.3h1c-0.7-8.1-1.4-12.2-9.3-16.8l-0.4-7c-0.2,0-0.4,0-0.7,0c-3.3,0-6-2.7-6-6c0-3.3,2.7-6,6-6s6,2.7,6,6 c0,1-0.3,2-0.7,2.8l9,2.9l7.2-13c-2.1-1.2-3.5-3.5-3.5-6.1C31.9,11.7,35.1,8.5,39,8.5z"/>
</svg>

<svg id="black-pawn" viewBox="0 0 78 78">
	<style type="text/css">
	.st0{fill:#f5f5f5;}
	.st1{fill:#aaa;}
	.st2{fill:none;stroke:#111;stroke-width:2;}
	.st3{fill:#555;}
	.st4{fill:#404040;}
	</style>
	<path class="st3" d="M18.7,71.5c0-5.6,1.9-10.3,7.5-14.1c4.9-3.3,7-5.9,6.1-12.2h-3.4l-2.8-1.9v-2.8l8.1-3.1 c-3-1.7-5.1-4.9-5.1-8.6c0-5.4,4.4-9.8,9.8-9.8s9.8,4.4,9.8,9.8c0,3.7-2,6.9-5.1,8.6l8.1,3.1v2.8l-2.8,1.9h-3.4 c-0.9,6.3,1.2,8.9,6.1,12.2c5.6,3.7,7.5,8.4,7.5,14.1C54.6,71.5,23.4,71.5,18.7,71.5z"/>
	<path class="st4" d="M59.2,71.5c0-0.5,0-0.9,0-1.3c0,0,0-0.1,0-0.1c-0.3-5-2.3-9.2-7.4-12.6c-4.9-3.3-7-5.9-6.1-12.2h3.4l2.8-1.9 v-2.8l-8.1-3.1c3-1.7,5.1-4.9,5.1-8.6c0-5.4-4.4-9.8-9.8-9.8c13.6,2.5,10,18.4-1.6,18.4c4.6,0,9.3,0.9,9.7,3.3 c0.3,1.3-0.5,4-5.3,4.1c-4.3,0.1-4.9,0.2-7.1,0.1c15.4,0.9,2.1,8.9,9.9,11.1c4,1.1,11.1,3.5,7,15.5C53.2,71.5,57.4,71.5,59.2,71.5 L59.2,71.5L59.2,71.5z"/>
	<path class="st2" d="M18.7,71.5c0-5.6,1.9-10.3,7.5-14.1c4.9-3.3,7-5.9,6.1-12.2h-3.4l-2.8-1.9v-2.8l8.1-3.1 c-3-1.7-5.1-4.9-5.1-8.6c0-5.4,4.4-9.8,9.8-9.8s9.8,4.4,9.8,9.8c0,3.7-2,6.9-5.1,8.6l8.1,3.1v2.8l-2.8,1.9h-3.4 c-0.9,6.3,1.2,8.9,6.1,12.2c5.6,3.7,7.5,8.4,7.5,14.1C54.6,71.5,23.4,71.5,18.7,71.5z"/>
</svg>

<svg id="black-knight" viewBox="0 0 78 78">
	<style type="text/css">
	.st0{fill:#f5f5f5;}
	.st1{fill:#aaa;}
	.st2{fill:none;stroke:#111;stroke-width:2;}
	.st3{fill:#555;}
	.st4{fill:#404040;}
	</style>
	<path class="st3" d="M59.1,58.9c1.1-6.4,4.3-19.2,0.3-30.1c-4.6-12.7-20.8-13-21.3-13.8c-0.5-0.7-5-6.3-7.7-6 c-2.8,0.2,0.1,5-1.7,5.9c-1.2,0.5-6.1,5.4-6.8,7.3c-0.5,1.4,0.3,2.7-0.9,5.4c-1.2,2.7-8.3,9.5-8.4,13.7c-0.1,4,9.4,6.6,10.9,5.9 c1.2-0.5,2.7-4.7,3.5-5.4c0.8-0.7,2.4-0.4,4.2-0.3c1.9,0.1,5-2.8,5.7-3.4c1.1-0.9,0.7-2.3,1.9-2.7c1.1-0.4,1,1.3,1.1,3.8 c0.2,2.5-5.4,8.1-9.5,11c-3.6,2.6-5.1,5.8-4.9,8.9c-2.5,0.7-5.9,3-5.9,5.1v7.4h45.7v-7.4C65.3,62,61.6,59.5,59.1,58.9z"/>
	<path class="st4" d="M32.5,22c-1.1-0.4-4.5,2.6-4.8,4.1c-0.3,1.6,6.7,1.4,7.3-0.9C35.4,24.1,34.2,22.6,32.5,22z"/>
	<path d="M32.6,22.3c-1.1-0.4-5.2,3.3-3.8,3.6s5.4,0.2,5.6-0.9C34.5,23.8,34.3,22.8,32.6,22.3z"/>
	<path class="st4" d="M58.4,71.5h6.9v-7.4c0-2.1-3.8-4.7-6.3-5.2c1.1-6.4,4.3-19.2,0.3-30.1c-4.6-12.7-20.8-13-21.3-13.8 c-0.5-0.7-5-6.3-7.7-6c3.2,0.8,6.6,6.3,6.2,6.9C46.8,15.8,57,25.4,56,36c-1,10.5-8.7,17.2-9.4,19.6c-0.7,2.4-2.3,3-11,3.3 C59.8,58.3,62.9,60.8,58.4,71.5z"/>
	<path class="st4" d="M30.5,50.2c4.1-2.9,9.7-8.5,9.5-11c-0.2-2.5,0-4.2-1.1-3.8c-1.1,0.4-0.8,1.8-1.9,2.7c-0.7,0.6-3.9,3.5-5.7,3.4 c-1.9-0.1-3.4-0.3-4.2,0.3c-0.8,0.7-2.3,4.9-3.5,5.4c-1.6,0.6-11-2-10.9-5.9c2.9,6.6,14,5.1,12.1-0.5c-1.2-3.7,2.6-1.7,3.9-0.9 c1.3,0.8,5,1.2,7.2-2.2c2.2-3.4,3.2-4.9,4.6-5.6c1.4-0.7,0.6-3.4,1.4-2.8c0.8,0.7,2.3,3.8,0.4,9.2C40.2,43.9,32.2,48.8,30.5,50.2z" />
	<path class="st2" d="M59.1,58.9c1.1-6.4,4.3-19.2,0.3-30.1c-4.6-12.7-20.8-13-21.3-13.8c-0.5-0.7-5-6.3-7.7-6 c-2.8,0.2,0.1,5-1.7,5.9c-1.2,0.5-6.1,5.4-6.8,7.3c-0.5,1.4,0.3,2.7-0.9,5.4c-1.2,2.7-8.3,9.5-8.4,13.7c-0.1,4,9.4,6.6,10.9,5.9 c1.2-0.5,2.7-4.7,3.5-5.4c0.8-0.7,2.4-0.4,4.2-0.3c1.9,0.1,5-2.8,5.7-3.4c1.1-0.9,0.7-2.3,1.9-2.7c1.1-0.4,1,1.3,1.1,3.8 c0.2,2.5-5.4,8.1-9.5,11c-3.6,2.6-5.1,5.8-4.9,8.9c-2.5,0.7-5.9,3-5.9,5.1v7.4h45.7v-7.4C65.3,62,61.6,59.5,59.1,58.9z"/>
</svg>

<svg id="black-bishop" viewBox="0 0 78 78">
	<style type="text/css">
	.st0{fill:#f5f5f5;}
	.st1{fill:#aaa;}
	.st2{fill:none;stroke:#111;stroke-width:2;}
	.st3{fill:#555;}
	.st4{fill:#404040;}
	</style>
	<path class="st3" d="M54.7,58.6h-5.7c5-4.1,8.3-10.9,8.3-17.3c0-6.5-4.3-15-9.4-20.1c-5,6.6-5,14.4-5,19.5h-6.6 c0-6.3,0-17.4,8.7-26.2c0.1-0.5,0.2-1.1,0.2-1.6c0-3.4-2.8-6.2-6.2-6.2s-6.2,2.8-6.2,6.2c0,1.9,0.9,3.6,2.2,4.7 c-7.1,3.5-14.2,15.3-14.2,23.8c0,6.4,3.3,13.2,8.3,17.3h-5.7c-2.4,0-7.1,2.9-7.1,5.3v7.4h45.7v-7.4C61.8,61.5,57.1,58.6,54.7,58.6z "/>
	<path class="st4" d="M35.8,41.4c0-6.3,0.5-17.8,9.2-26.7c0.1-0.5,0.2-1.1,0.2-1.6c0-3.4-2.8-6.2-6.2-6.2c4.1,0.6,5,6.1,3.7,8.7 c-1.6,3.3-10.1,11.8-10.2,19.3C32.5,38.6,34.2,41.2,35.8,41.4z"/>
	<path class="st4" d="M47.8,21.4c5.9,7.9,6.6,16.7,6.7,19.4c0.2,9.4-7.5,18.5-19.7,18.5c21.2,0,25.6,3.9,21.7,12.1l5.4,0.1v-7.4 c0-2.4-4.7-5.3-7.1-5.3h-5.7c5-4.1,8.3-10.9,8.3-17.3C57.3,35.1,53,26.6,47.8,21.4z"/>
	<path class="st2" d="M54.7,58.8h-5.7c5-4.1,8.3-10.9,8.3-17.3c0-6.5-4.3-15-9.4-20.1c-5,6.6-5,14.4-5,19.5h-6.6 c0-6.3,0-17.4,8.7-26.2c0.1-0.5,0.2-1.1,0.2-1.6c0-3.4-2.8-6.2-6.2-6.2s-6.2,2.8-6.2,6.2c0,1.9,0.9,3.6,2.2,4.7 c-7.1,3.5-14.2,15.3-14.2,23.8c0,6.4,3.3,13.2,8.3,17.3h-5.7c-2.4,0-7.1,2.9-7.1,5.3v7.4h45.7v-7.4C61.8,61.7,57.1,58.8,54.7,58.8z "/>
</svg>

<svg id="black-rook" viewBox="0 0 78 78">
	<style type="text/css">
	.st0{fill:#f5f5f5;}
	.st1{fill:#aaa;}
	.st2{fill:none;stroke:#111;stroke-width:2;}
	.st3{fill:#555;}
	.st4{fill:#404040;}
	</style>
	<path class="st3" d="M54.8,58.9l-2.4-26.4c2.9-0.2,5.3-2.5,5.5-5.4l1.3-9.9c0.1-0.9-0.5-1.7-1.4-1.8L52,14.6 c-0.9-0.1-1.7,0.5-1.8,1.4l-1.6,5.6h-4.1v-6.6c0-0.8-0.7-1.5-1.5-1.5h-7.8c-0.8,0-1.5,0.7-1.5,1.5v6.5h-4L28.1,16 c-0.1-0.9-0.9-1.5-1.8-1.4l-5.8,0.8c-0.9,0.1-1.5,0.9-1.4,1.8l1.3,10c0,0,0,0.1,0,0.1v0l0,0c0.3,2.7,2.4,4.8,5,5.2l-2.4,26.4 c-2.4,0.1-7,2.9-7,5.3v7.4h45.7v-7.4C61.8,61.8,57.2,58.9,54.8,58.9z"/>
	<path class="st4" d="M29.7,21.6L28.1,16c-0.1-0.9-0.9-1.5-1.8-1.4l-5.8,0.8c6.3-0.6,8,3.5,9.1,6.2H29.7z"/>
	<path class="st4" d="M44.5,21.8v-6.7c0-0.8-0.7-1.5-1.5-1.5h-7.8C39.2,13.5,43.9,15,44.5,21.8L44.5,21.8z"/>
	<path class="st4" d="M56.2,71.5h5.7v-7.4c0-2.4-4.7-5.2-7.1-5.3l-2.4-26.4c2.9-0.2,5.3-2.5,5.5-5.4l1.3-9.9 c0.1-0.9-0.5-1.7-1.4-1.8L52,14.6c7,0.6,4.6,7.8,4.5,9.8c-0.4,7-13.1,8-25.8,8c23,0,18.4,8,19.6,17.4c0.9,6.7-1,9.1-16.6,9.1 c20-0.1,24.1,4,24.1,8C57.7,69.5,56.2,71.5,56.2,71.5z"/>
	<path class="st2" d="M54.8,58.9l-2.4-26.4c2.9-0.2,5.3-2.5,5.5-5.4l1.3-9.9c0.1-0.9-0.5-1.7-1.4-1.8L52,14.6 c-0.9-0.1-1.7,0.5-1.8,1.4l-1.6,5.6h-4.1v-6.6c0-0.8-0.7-1.5-1.5-1.5h-7.8c-0.8,0-1.5,0.7-1.5,1.5v6.5h-4L28.1,16 c-0.1-0.9-0.9-1.5-1.8-1.4l-5.8,0.8c-0.9,0.1-1.5,0.9-1.4,1.8l1.3,10c0,0,0,0.1,0,0.1v0l0,0c0.3,2.7,2.4,4.8,5,5.2l-2.4,26.4 c-2.4,0.1-7,2.9-7,5.3v7.4h45.7v-7.4C61.8,61.8,57.2,58.9,54.8,58.9z"/>
</svg>

<svg id="black-king" viewBox="0 0 78 78">
	<style type="text/css">
	.st0{fill:#f5f5f5;}
	.st1{fill:#aaa;}
	.st2{fill:none;stroke:#111;stroke-width:2;}
	.st3{fill:#555;}
	.st4{fill:#404040;}
	</style>
	<path class="st3" d="M70,39.8C70,33.3,64.7,28,58.3,28c-4.2,0-7.8,2.2-9.9,5.6c-1.2-2.8-2.8-5.1-4.7-6.5l-1.4-8.3l6.5,0.9v-7.7 l-6.5,0.9l0.9-6.4h-8.5l0.9,6.4l-6-0.9v7.7l6-0.9l-1.4,8.2c-1.9,1.4-3.5,3.5-4.7,6.3c-2.1-3.1-5.6-5.1-9.6-5.1 C13.3,27.9,8,33.3,8,39.8c0,6.5,7.1,14.6,13.5,14.7l0.7,4.5c-2.5,0.6-6.1,3-6.1,5.1v7.4h45.6v-7.4c0-2.1-3.6-4.5-6.1-5.1l0.7-4.5 C62.9,54.5,70,46.4,70,39.8z"/>
	<path class="st4" d="M29.5,34.1c-1.1-3.6-5.8-6-9.8-6.1c3.7,0.6,8,4.6,9.2,10.1C29.1,35,29.5,34.1,29.5,34.1z"/>
	<path class="st4" d="M48.6,33.9c-1.2-2.8-3.1-5.5-5-6.9l-1.9-8.8c-1.1-0.1-0.6,1.6-0.1,4.2c0.7,3.3-1.7,3.9-3.4,4.4 c6.1-0.2,8.9,7.1,8.7,11.2C47.9,34.7,48.6,33.9,48.6,33.9z"/>
	<path class="st4" d="M23.9,53.9c2.8-1,6.7-1.6,10.1-1.2c-1.9-1-3.9-2.7-4.6-7.9C29.6,50.6,28.3,52.1,23.9,53.9z"/>
	<path class="st4" d="M70,39.8C70,33.3,64.7,28,58.3,28c8.5,1.6,8.7,8,8.9,10.6c0.6,8-5.5,14.3-18.4,14.5c-2.1-1.3-2.6-3.1-2.5-7.5 c-0.7,5.3-2.6,6.3-4.4,7.3c1.1,0,2.2,0,3.3,0.1c0.2,0,0.5,0.1,0.7,0.1c2,0.3,3.9,0.8,5.6,1.3c5.5,3.3-0.1,4.6-20.1,4.7 c20-0.1,27.7,2.8,22.7,12.5h7.7v-7.4c0-2.1-3.6-4.5-6.1-5.1l0.7-4.5C62.9,54.5,70,46.4,70,39.8z"/>
	<path class="st2" d="M70,39.8C70,33.3,64.7,28,58.3,28c-4.2,0-7.8,2.2-9.9,5.6c-1.2-2.8-2.8-5.1-4.7-6.5l-1.4-8.3l6.5,0.9v-7.7 l-6.5,0.9l0.9-6.4h-8.5l0.9,6.4l-6-0.9v7.7l6-0.9l-1.4,8.2c-1.9,1.4-3.5,3.5-4.7,6.3c-2.1-3.1-5.6-5.1-9.6-5.1 C13.3,27.9,8,33.3,8,39.8c0,6.5,7.1,14.6,13.5,14.7l0.7,4.5c-2.5,0.6-6.1,3-6.1,5.1v7.4h45.6v-7.4c0-2.1-3.6-4.5-6.1-5.1l0.7-4.5 C62.9,54.5,70,46.4,70,39.8z"/>
</svg>

<svg id="black-queen" viewBox="0 0 78 78">
	<style type="text/css">
	.st0{fill:#f5f5f5;}
	.st1{fill:#aaa;}
	.st2{fill:none;stroke:#111;stroke-width:2;}
	.st3{fill:#555;}
	.st4{fill:#404040;}
	</style>
	<path class="st3" d="M39,8.5c3.9,0,7,3.1,7,7c0,2.6-1.4,4.9-3.5,6.1l7.2,13l9-2.9C58.3,31,58,30,58,29c0-3.3,2.7-6,6-6 c3.3,0,6,2.7,6,6s-2.7,6-6,6c-0.2,0-0.4,0-0.7,0l-0.5,7c-7.8,4.6-8.6,8.8-9.3,16.8h1c2.4,0,7.1,2.9,7.1,5.3v7.4H39H16.1v-7.4 c0-2.4,4.7-5.3,7.1-5.3h1c-0.7-8.1-1.4-12.2-9.3-16.8l-0.4-7c-0.2,0-0.4,0-0.7,0c-3.3,0-6-2.7-6-6c0-3.3,2.7-6,6-6s6,2.7,6,6 c0,1-0.3,2-0.7,2.8l9,2.9l7.2-13c-2.1-1.2-3.5-3.5-3.5-6.1C31.9,11.7,35.1,8.5,39,8.5z"/>
	<path class="st4" d="M39,8.9c3.9,0,7,2.8,7,6.7c0,2.6-1.4,4.9-3.5,6.1l6.9,13.5c0,0-2.1,1.6-7.4,2.9c6.7-3.1,0.3-16.4,0.3-16.4 s-1.8,0.6-4.6,0.2c3.6,0.1,6.1-3.9,6.2-6.4C44.1,12.3,43.1,9.7,39,8.9z"/>
	<path class="st4" d="M19,31.9c0.4-0.8,0.9-1.9,0.9-2.9c0-3.3-2.7-5.5-6-5.5c2.6,0.5,4,2.2,4.3,4.8c0.2,2-0.3,3.5-2,5.6 C18.4,33.2,19,31.9,19,31.9z"/>
	<path class="st4" d="M64,23c2.5,0.9,3.9,3.2,3.9,5.7c0,2.7-3,5.1-6.6,4.7c1,0.9,1.6,1.2,1.6,1.2c-0.6,7.1-7.3,11.2-13,11.4 c3.3-0.2,6.6,12.9-2.5,12.9c-2.6,0.3-4.6-1.8-4.7-2.8c-0.3,2.8-3,3.1-5.3,3c-2.3,0-4.7-0.7-4.9-3.9c0.1,3.5-1,3.8-4.7,4.1 c4.5,0,8.1,0,10.9,0c-0.7,0-1.4,0-2.2,0c11.7,0,22.6-0.4,19.2,12.1h6.1v-7.4c0-2.4-4.7-5.3-7.1-5.3h-1c0.7-8.1,1.4-12.2,9.3-16.8 l0.5-7.1c0.2,0,0.4,0.1,0.6,0.1c3.3,0,6-2.7,6-6C70,25.7,67.3,23,64,23z"/>
	<path class="st4" d="M22.8,44.3c13.9,4,18.9,2.4,24.6,1.9c-5.1,0.7-4.8,5.8-4.7,6.6c-0.2-6.6-9.3-8.3-10-0.5 C32.6,46.5,29.1,46.3,22.8,44.3z"/>
	<path class="st2" d="M39,8.5c3.9,0,7,3.1,7,7c0,2.6-1.4,4.9-3.5,6.1l7.2,13l9-2.9C58.3,31,58,30,58,29c0-3.3,2.7-6,6-6 c3.3,0,6,2.7,6,6s-2.7,6-6,6c-0.2,0-0.4,0-0.7,0l-0.5,7c-7.8,4.6-8.6,8.8-9.3,16.8h1c2.4,0,7.1,2.9,7.1,5.3v7.4H39H16.1v-7.4 c0-2.4,4.7-5.3,7.1-5.3h1c-0.7-8.1-1.4-12.2-9.3-16.8l-0.4-7c-0.2,0-0.4,0-0.7,0c-3.3,0-6-2.7-6-6c0-3.3,2.7-6,6-6s6,2.7,6,6 c0,1-0.3,2-0.7,2.8l9,2.9l7.2-13c-2.1-1.2-3.5-3.5-3.5-6.1C31.9,11.7,35.1,8.5,39,8.5z"/>
</svg>
