
<svg id="white-pawn" viewBox="0 0 500 500">
	<style type="text/css">
	.st0{fill:#f5f5f5;}
	.st1{fill:#aaa;}
	.st2{fill:none;stroke:#000;stroke-width:11;}
	.st3{fill:#555;}
	.st4{fill:#404040;}
	</style>
	<path class="st0" d="M114.3,466.1c0-37.7,12.6-69.1,50.2-94.2c33.1-22.1,46.8-39.4,41-81.6h-23.1l-18.8-12.6v-18.8L218,238 c-20.2-11.3-33.9-32.8-33.9-57.6c0-36.4,29.5-65.9,65.9-65.9s65.9,29.5,65.9,65.9c0,24.8-13.7,46.3-33.9,57.6l54.3,20.9v18.8 l-18.8,12.6h-23.1c-5.7,42.3,7.9,59.5,41,81.6c37.7,25.1,50.2,56.5,50.2,94.2C354.3,466.1,145.7,466.1,114.3,466.1z"/>
	<path class="st1" d="M385.7,466.1c0-3.1-0.1-6.1-0.3-9c0-0.2,0-0.4,0-0.6c-2.1-33.4-15.5-61.6-49.9-84.5 c-33.1-22.1-46.8-39.4-41-81.6h23.1l18.8-12.6v-18.8L282,238c20.2-11.3,33.9-32.8,33.9-57.6c0-36.4-29.5-65.9-65.9-65.9 c90.8,16.7,66.9,123.5-10.9,123.5c30.6,0.3,62,5.9,65.3,22.2c1.7,8.5-3.3,26.6-35.8,27.3c-28.9,0.6-32.5,1.4-47.7,0.9 c103,6,13.8,59.6,66.4,74.1c26.8,7.4,74.1,23.4,47.2,103.7C345.3,466.1,373.4,466.1,385.7,466.1 C385.7,466.1,385.7,466.1,385.7,466.1C385.7,466.1,385.7,466.1,385.7,466.1z"/>
	<path class="st2" d="M114.3,466.1c0-37.7,12.6-69.1,50.2-94.2c33.1-22.1,46.8-39.4,41-81.6h-23.1l-18.8-12.6v-18.8L218,238 c-20.2-11.3-33.9-32.8-33.9-57.6c0-36.4,29.5-65.9,65.9-65.9s65.9,29.5,65.9,65.9c0,24.8-13.7,46.3-33.9,57.6l54.3,20.9v18.8 l-18.8,12.6h-23.1c-5.7,42.3,7.9,59.5,41,81.6c37.7,25.1,50.2,56.5,50.2,94.2C354.3,466.1,145.7,466.1,114.3,466.1z"/>
</svg>

<svg id="white-knight" viewBox="0 0 500 500">
	<style type="text/css">
	.st0{fill:#f5f5f5;}
	.st1{fill:#aaa;}
	.st2{fill:none;stroke:#000;stroke-width:11;}
	.st3{fill:#555;}
	.st4{fill:#f00;}
	</style>
	<path class="st0" d="M384.4,381.7c7.6-42.9,28.7-128.6,2.2-201.8C356,95,247.5,92.6,244.2,87.7c-3.3-4.9-33.3-41.9-51.8-40.4 c-18.9,1.5,0.5,33.8-11.5,39.3c-8,3.6-40.9,36-45.3,48.6c-3.4,9.7,2.2,18-6,36c-8.2,18-55.7,63.8-56.2,91.7 c-0.5,26.6,62.8,44.2,73.1,39.8c8.3-3.5,18-31.7,23.5-36c5.5-4.4,15.8-2.7,28.4-2.1c12.6,0.5,33.6-18.8,38.4-22.8 c7.3-6.2,4.7-15.4,12.4-18.2c7.6-2.7,6.5,8.7,7.6,25.6c1.1,16.9-36,54-63.9,73.7c-24.2,17.1-34.4,38.7-32.7,59.5 c-16.7,4.5-39.6,20.4-39.6,34v49.7h305.9v-49.7C426.6,402,401.3,385.2,384.4,381.7z"/>
	<path class="st1" d="M206.7,134.3c-7.7-2.5-30.1,17.7-32,27.2c-2.1,10.9,45,9.3,49.1-5.9C225.9,148,218.1,137.9,206.7,134.3z"/>
	<path d="M207.2,135.9c-7.7-2.5-34.7,21.8-25.4,24.4c9.3,2.6,36.3,1.6,37.3-6.2C220.2,146.3,218.6,139.6,207.2,135.9z"/>
	<path class="st1" d="M380.1,466.1h46.5v-49.7c0-14.3-25.3-31.2-42.2-34.6c7.6-42.9,28.7-128.6,2.2-201.8 C356,95,247.5,92.6,244.2,87.7c-3.3-4.9-33.3-41.9-51.8-40.4c21.4,5.3,44.1,42.1,41.5,46.2C302.3,92.7,370.7,157,364,227.7 c-6.7,70.6-58.4,115.2-62.8,131.2s-15.2,19.9-73.6,21.8C389.4,377.2,410.2,394,380.1,466.1z"/>
	<path class="st1" d="M192.9,322.9c27.8-19.6,64.9-56.8,63.9-73.7c-1.1-16.9,0-28.4-7.6-25.6c-7.6,2.7-5.1,11.9-12.4,18.2 c-4.7,4-25.8,23.4-38.4,22.8c-12.6-0.5-22.9-2.2-28.4,2.1c-5.5,4.4-15.1,32.5-23.5,36c-10.4,4.3-73.6-13.3-73.1-39.8 c19.6,44.4,93.5,34,80.9-3.2c-8.3-24.5,17.5-11.5,26.4-6.3c8.9,5.2,33.5,8.2,48.3-14.5s21.2-32.7,30.5-37.5 c9.3-4.8,4.1-23,9.3-18.6c5.2,4.5,15.6,25.3,2.6,61.7C258.4,280.8,204.4,314,192.9,322.9z"/>
	<path class="st2" d="M384.4,381.7c7.6-42.9,28.7-128.6,2.2-201.8C356,95,247.5,92.6,244.2,87.7c-3.3-4.9-33.3-41.9-51.8-40.4 c-18.9,1.5,0.5,33.8-11.5,39.3c-8,3.6-40.9,36-45.3,48.6c-3.4,9.7,2.2,18-6,36c-8.2,18-55.7,63.8-56.2,91.7 c-0.5,26.6,62.8,44.2,73.1,39.8c8.3-3.5,18-31.7,23.5-36c5.5-4.4,15.8-2.7,28.4-2.1c12.6,0.5,33.6-18.8,38.4-22.8 c7.3-6.2,4.7-15.4,12.4-18.2c7.6-2.7,6.5,8.7,7.6,25.6c1.1,16.9-36,54-63.9,73.7c-24.2,17.1-34.4,38.7-32.7,59.5 c-16.7,4.5-39.6,20.4-39.6,34v49.7h305.9v-49.7C426.6,402,401.3,385.2,384.4,381.7z"/>
</svg>

<svg id="white-bishop" viewBox="0 0 500 500">
	<style type="text/css">
	.st0{fill:#f5f5f5;}
	.st1{fill:#aaa;}
	.st2{fill:none;stroke:#000;stroke-width:11;}
	.st3{fill:#555;}
	.st4{fill:#404040;}
	</style>
	<path class="st0" d="M355.1,379.5h-38.5c33.5-27.4,55.7-72.8,55.7-115.8c0-43.7-28.5-100.2-63.2-134.9 c-33.6,44.4-33.6,96.8-33.5,130.7l-44,0c0-41.9,0-116.4,58.3-175.7c1-3.5,1.5-7.2,1.5-11c0-22.9-18.6-41.5-41.5-41.5 c-22.9,0-41.5,18.6-41.5,41.5c0,12.6,5.7,23.9,14.6,31.5c-47.8,23.7-95.4,102.5-95.4,159.3c0,43,22.2,88.4,55.7,115.8h-38.5 c-16,0-47.9,19.3-47.9,35.3v49.7H403v-49.7C403,398.8,371.1,379.5,355.1,379.5z"/>
	<path class="st1" d="M228.5,264.2c0-41.9,3.1-119.4,61.5-178.8c1-3.5,1.5-7.2,1.5-11c0-22.9-18.6-41.5-41.5-41.5 c27.8,3.8,33.4,40.7,25.1,58.4c-10.4,22.2-68,79.2-68.5,129.5C206.3,245.3,217.6,262.8,228.5,264.2z"/>
	<path class="st1" d="M309.1,130.4c39.2,52.9,44.2,111.7,44.7,129.9c1.6,62.7-50.3,123.9-132.2,123.9c141.9,0,171.6,26.4,145.2,81.4 l36.2,0.4v-49.7c0-16-31.8-35.3-47.9-35.3h-38.5c33.5-27.4,55.7-72.8,55.7-115.8C372.4,221.6,343.9,165,309.1,130.4z"/>
	<path class="st2" d="M355.1,381h-38.5c33.5-27.4,55.7-72.8,55.7-115.8c0-43.7-28.5-100.2-63.2-134.9 c-33.6,44.4-33.6,96.8-33.5,130.7l-44,0c0-41.9,0-116.4,58.3-175.7c1-3.5,1.5-7.2,1.5-11c0-22.9-18.6-41.5-41.5-41.5 c-22.9,0-41.5,18.6-41.5,41.5c0,12.6,5.7,23.9,14.6,31.5c-47.8,23.7-95.4,102.5-95.4,159.3c0,43,22.2,88.4,55.7,115.8h-38.5 c-16,0-47.9,19.3-47.9,35.3v49.7H403v-49.7C403,400.3,371.1,381,355.1,381z"/>
</svg>

<svg id="white-rook" viewBox="0 0 500 500">
	<style type="text/css">
	.st0{fill:#f5f5f5;}
	.st1{fill:#aaa;}
	.st2{fill:none;stroke:#000;stroke-width:11;}
	.st3{fill:#555;}
	.st4{fill:#404040;}
	</style>
	<path class="st0" d="M355.6,381.1l-15.8-176.6c19.5-1.3,35.2-16.8,36.8-36.2l8.9-66.1c0.8-5.9-3.4-11.4-9.3-12.2l-38.8-5.2 c-5.9-0.8-11.4,3.4-12.2,9.3l-10.5,37.5H287V87.7c0-5.6-4.5-10.1-10.1-10.1h-52.5c-5.6,0-10.1,4.5-10.1,10.1v43.8h-26.5L177.3,94 c-0.8-5.9-6.3-10.1-12.2-9.3l-38.8,5.2c-5.9,0.8-10.1,6.3-9.3,12.2l9,66.7c0,0.2,0.1,0.4,0.1,0.6l0,0.1c0,0,0,0,0,0 c2.1,17.8,16,32,33.7,34.6l-15.9,177c-16.3,0.7-46.9,19.5-46.9,35.2v49.7H403v-49.7C403,400.5,371.7,381.4,355.6,381.1z"/>
	<path class="st1" d="M187.8,131.5L177.3,94c-0.8-5.9-6.3-10.1-12.2-9.3l-38.8,5.2c42.5-4.1,53.5,23.3,60.7,41.6L187.8,131.5z"/>
	<path class="st1" d="M287,132.7V87.7c0-5.6-4.5-10.1-10.1-10.1h-52.5C251.1,77.2,282.8,87.3,287,132.7L287,132.7z"/>
	<path class="st1" d="M365,466.1h38v-49.7c0-15.9-31.2-34.9-47.4-35.3l-15.8-176.6c19.5-1.3,35.2-16.8,36.8-36.2l8.9-66.1 c0.8-5.9-3.4-11.4-9.3-12.2l-38.8-5.2c46.7,3.9,31.1,52.3,30.4,65.4c-2.6,46.9-88.1,53.4-173.2,53.4c154,0,123.2,53.9,131.2,116.7 c5.7,44.6-6.7,60.7-111.5,61.2c133.8-0.7,161.8,26.9,161.3,53.9C375.1,452.7,365,466.1,365,466.1z"/>
	<path class="st2" d="M355.6,381.1l-15.8-176.6c19.5-1.3,35.2-16.8,36.8-36.2l8.9-66.1c0.8-5.9-3.4-11.4-9.3-12.2l-38.8-5.2 c-5.9-0.8-11.4,3.4-12.2,9.3l-10.5,37.5H287V87.7c0-5.6-4.5-10.1-10.1-10.1h-52.5c-5.6,0-10.1,4.5-10.1,10.1v43.8h-26.5L177.3,94 c-0.8-5.9-6.3-10.1-12.2-9.3l-38.8,5.2c-5.9,0.8-10.1,6.3-9.3,12.2l9,66.7c0,0.2,0.1,0.4,0.1,0.6l0,0.1c0,0,0,0,0,0 c2.1,17.8,16,32,33.7,34.6l-15.9,177c-16.3,0.7-46.9,19.5-46.9,35.2v49.7H403v-49.7C403,400.5,371.7,381.4,355.6,381.1z"/>
</svg>

<svg id="white-king" viewBox="0 0 500 500">
	<style type="text/css">
	.st0{fill:#f5f5f5;}
	.st1{fill:#aaa;}
	.st2{fill:none;stroke:#000;stroke-width:11;}
	.st3{fill:#555;}
	.st4{fill:#404040;}
	</style>
	<path class="st0" d="M457.7,253.6c0-43.9-35.2-79.5-78.6-79.5c-28,0-52.5,14.9-66.4,37.2c-8-18.9-19-34.2-31.8-43.8l-9.5-55.7 l43.6,6.3V66.2l-43.6,6.3l6.3-42.6h-57l6.3,42.6l-40.5-6.3v51.8l40.5-6.3l-9.5,54.7c-12.7,9.2-23.7,23.7-31.8,41.9 c-14.2-20.7-37.8-34.3-64.6-34.3c-43.4,0-78.6,35.6-78.6,79.5c0,43.7,47.4,98,90.6,98.3l4.8,30.2c-16.8,4.2-40.6,20.4-40.6,34.3 v49.7H403v-49.7c0-13.9-23.8-30.1-40.6-34.3l4.8-30.2C410.2,351.6,457.7,297.3,457.7,253.6z"/>
	<path class="st1" d="M186.3,214.9c-7.5-24.3-38.6-40.5-65.4-40.8c25,4.3,53.9,30.5,61.8,67.4C183.6,221.1,186.3,214.9,186.3,214.9z "/>
	<path class="st1" d="M314.5,213.9c-8-18.9-20.8-36.7-33.6-46.4l-12.6-58.9c-7.6-0.7-4,10.8-0.5,28c4.4,22.1-11.5,26.4-22.6,29.7 c40.8-1.4,59.7,47.8,58.4,75.3C309.6,219,314.5,213.9,314.5,213.9z"/>
	<path class="st1" d="M149,347.6c18.7-6.4,45.1-10.4,67.4-8c-12.4-6.7-25.9-17.9-30.6-53.1C187.1,325.9,178.4,336.1,149,347.6z"/>
	<path class="st1" d="M457.7,253.6c0-43.9-35.2-79.5-78.6-79.5c57.2,10.5,58.3,53.3,59.7,71.1c4.2,53.4-36.9,96-123.2,97 c-14-9-17.5-21-16.5-50.3c-4.7,35.3-17.1,42.3-29.6,49c7.2-0.3,14.5,0,21.8,0.8c1.6,0.2,3.2,0.4,4.8,0.6 c13.3,1.8,26.3,5.1,37.5,8.6c37,21.8-0.5,30.5-134.5,31.5c133.9-1,185.7,18.8,152.3,83.7H403v-49.7c0-13.9-23.8-30.1-40.6-34.3 l4.8-30.2C410.2,351.6,457.7,297.3,457.7,253.6z"/>
	<path class="st2" d="M457.7,253.6c0-43.9-35.2-79.5-78.6-79.5c-28,0-52.5,14.9-66.4,37.2c-8-18.9-19-34.2-31.8-43.8l-9.5-55.7 l43.6,6.3V66.2l-43.6,6.3l6.3-42.6h-57l6.3,42.6l-40.5-6.3v51.8l40.5-6.3l-9.5,54.7c-12.7,9.2-23.7,23.7-31.8,41.9 c-14.2-20.7-37.8-34.3-64.6-34.3c-43.4,0-78.6,35.6-78.6,79.5c0,43.7,47.4,98,90.6,98.3l4.8,30.2c-16.8,4.2-40.6,20.4-40.6,34.3 v49.7H403v-49.7c0-13.9-23.8-30.1-40.6-34.3l4.8-30.2C410.2,351.6,457.7,297.3,457.7,253.6z"/>
</svg>

<svg id="white-queen" viewBox="0 0 500 500">
	<style type="text/css">
	.st0{fill:#f5f5f5;}
	.st1{fill:#aaa;}
	.st2{fill:none;stroke:#000;stroke-width:11;}
	.st3{fill:#555;}
	.st4{fill:#404040;}
	</style>
	<path class="st0" d="M250,43.9c26.1,0,47.2,21.1,47.2,47.2c0,17.3-9.4,32.5-23.3,40.7l48,87.3l60.3-19.1c-3-5.6-4.7-12-4.7-18.8 c0-22.1,18-40.1,40.1-40.1c22.1,0,40.1,18,40.1,40.1c0,22.1-18,40.1-40.1,40.1c-1.5,0-2.9-0.1-4.4-0.3l-3.1,47.1 c-52.4,31.1-57.6,58.7-62,112.9h6.9c16,0,47.9,19.3,47.9,35.3v49.7l-153,0l-153,0v-49.7c0-16,31.8-35.3,47.9-35.3h6.9 c-4.4-54.2-9.6-81.8-62-112.9L86.7,221c-1.4,0.2-2.9,0.3-4.4,0.3c-22.1,0-40.1-18-40.1-40.1c0-22.1,18-40.1,40.1-40.1 c22.1,0,40.1,18,40.1,40.1c0,6.8-1.7,13.2-4.7,18.8l60.3,19.1l48-87.3c-13.9-8.2-23.3-23.3-23.3-40.7C202.8,65,223.9,43.9,250,43.9 z"/>
	<path class="st1" d="M250,46.5c26.1,0,47.2,18.5,47.2,44.6c0,17.3-9.7,32.5-23.7,40.7l46.3,90.7c0,0-14.1,10.5-49.6,19.4 c44.8-20.8,2.3-109.7,2.3-109.7s-11.9,4.3-30.6,1.5c23.9,0.9,40.9-25.9,41.6-42.9C284.4,69.4,277.5,51.9,250,46.5z"/>
	<path class="st1" d="M116.2,200.4c3-5.6,6.2-12.4,6.2-19.2c0-22.1-18-37-40.1-37c17.4,3.6,27,14.7,28.9,32.1 c1.5,13.1-2.2,23.5-13.4,37.5C111.7,209.1,116.2,200.4,116.2,200.4z"/>
	<path class="st1" d="M417.6,141.1c16.8,6.2,26.3,21.3,26.3,38.2c0,18-20,34.5-44.3,31.7c6.5,6.1,10.6,8.2,10.6,8.2 c-4.3,47.9-49.2,74.8-86.8,76.1c22-1.3,44.5,86.7-17,86.4c-17.4,1.9-31.1-12.3-31.4-18.6c-2.3,18.5-20.2,20.6-35.7,20.2 c-15.5-0.3-31.3-4.4-32.6-26.3c0.9,23.4-6.4,25.4-31.3,27.2c30.2,0.1,54.3,0.2,73,0.3c-4.7,0.1-9.5,0.2-14.6,0.2 c78.6-0.3,151.3-2.4,128.6,81.4l40.7,0v-49.7c0-16-31.8-35.3-47.9-35.3h-6.9c4.4-54.2,9.6-81.8,62-112.9l3.2-47.3 c1.4,0.2,2.8,0.4,4.3,0.4c22.1,0,40.1-18,40.1-40.1C457.7,159.1,439.8,141.1,417.6,141.1z"/>
	<path class="st1" d="M141.7,283.8c93,26.5,126.6,16.1,164.6,12.7c-33.9,4.8-32.1,39.1-31.8,44.3c-1.2-44-62.4-55.4-67.1-3.5 C207.2,298.3,184,296.8,141.7,283.8z"/>
	<path class="st2" d="M250,43.9c26.1,0,47.2,21.1,47.2,47.2c0,17.3-9.4,32.5-23.3,40.7l48,87.3l60.3-19.1c-3-5.6-4.7-12-4.7-18.8 c0-22.1,18-40.1,40.1-40.1c22.1,0,40.1,18,40.1,40.1c0,22.1-18,40.1-40.1,40.1c-1.5,0-2.9-0.1-4.4-0.3l-3.1,47.1 c-52.4,31.1-57.6,58.7-62,112.9h6.9c16,0,47.9,19.3,47.9,35.3v49.7l-153,0l-153,0v-49.7c0-16,31.8-35.3,47.9-35.3h6.9 c-4.4-54.2-9.6-81.8-62-112.9L86.7,221c-1.4,0.2-2.9,0.3-4.4,0.3c-22.1,0-40.1-18-40.1-40.1c0-22.1,18-40.1,40.1-40.1 c22.1,0,40.1,18,40.1,40.1c0,6.8-1.7,13.2-4.7,18.8l60.3,19.1l48-87.3c-13.9-8.2-23.3-23.3-23.3-40.7C202.8,65,223.9,43.9,250,43.9 z"/>
</svg>

<svg id="black-pawn" viewBox="0 0 500 500">
	<style type="text/css">
	.st0{fill:#f5f5f5;}
	.st1{fill:#aaa;}
	.st2{fill:none;stroke:#000;stroke-width:11;}
	.st3{fill:#555;}
	.st4{fill:#404040;}
	</style>
	<path class="st3" d="M114.3,466.1c0-37.7,12.6-69.1,50.2-94.2c33.1-22.1,46.8-39.4,41-81.6h-23.1l-18.8-12.6v-18.8L218,238 c-20.2-11.3-33.9-32.8-33.9-57.6c0-36.4,29.5-65.9,65.9-65.9s65.9,29.5,65.9,65.9c0,24.8-13.7,46.3-33.9,57.6l54.3,20.9v18.8 l-18.8,12.6h-23.1c-5.7,42.3,7.9,59.5,41,81.6c37.7,25.1,50.2,56.5,50.2,94.2C354.3,466.1,145.7,466.1,114.3,466.1z"/>
	<path class="st4" d="M385.7,466.1c0-3.1-0.1-6.1-0.3-9c0-0.2,0-0.4,0-0.6c-2.1-33.4-15.5-61.6-49.9-84.5 c-33.1-22.1-46.8-39.4-41-81.6h23.1l18.8-12.6v-18.8L282,238c20.2-11.3,33.9-32.8,33.9-57.6c0-36.4-29.5-65.9-65.9-65.9 c90.8,16.7,66.9,123.5-10.9,123.5c30.6,0.3,62,5.9,65.3,22.2c1.7,8.5-3.3,26.6-35.8,27.3c-28.9,0.6-32.5,1.4-47.7,0.9 c103,6,13.8,59.6,66.4,74.1c26.8,7.4,74.1,23.4,47.2,103.7C345.3,466.1,373.4,466.1,385.7,466.1 C385.7,466.1,385.7,466.1,385.7,466.1C385.7,466.1,385.7,466.1,385.7,466.1z"/>
	<path class="st2" d="M114.3,466.1c0-37.7,12.6-69.1,50.2-94.2c33.1-22.1,46.8-39.4,41-81.6h-23.1l-18.8-12.6v-18.8L218,238 c-20.2-11.3-33.9-32.8-33.9-57.6c0-36.4,29.5-65.9,65.9-65.9s65.9,29.5,65.9,65.9c0,24.8-13.7,46.3-33.9,57.6l54.3,20.9v18.8 l-18.8,12.6h-23.1c-5.7,42.3,7.9,59.5,41,81.6c37.7,25.1,50.2,56.5,50.2,94.2C354.3,466.1,145.7,466.1,114.3,466.1z"/>
</svg>

<svg id="black-knight" viewBox="0 0 500 500">
	<style type="text/css">
	.st0{fill:#f5f5f5;}
	.st1{fill:#aaa;}
	.st2{fill:none;stroke:#000;stroke-width:11;}
	.st3{fill:#555;}
	.st4{fill:#404040;}
	</style>
	<path class="st3" d="M384.4,381.7c7.6-42.9,28.7-128.6,2.2-201.8C356,95,247.5,92.6,244.2,87.7c-3.3-4.9-33.3-41.9-51.8-40.4 c-18.9,1.5,0.5,33.8-11.5,39.3c-8,3.6-40.9,36-45.3,48.6c-3.4,9.7,2.2,18-6,36c-8.2,18-55.7,63.8-56.2,91.7 c-0.5,26.6,62.8,44.2,73.1,39.8c8.3-3.5,18-31.7,23.5-36c5.5-4.4,15.8-2.7,28.4-2.1c12.6,0.5,33.6-18.8,38.4-22.8 c7.3-6.2,4.7-15.4,12.4-18.2c7.6-2.7,6.5,8.7,7.6,25.6c1.1,16.9-36,54-63.9,73.7c-24.2,17.1-34.4,38.7-32.7,59.5 c-16.7,4.5-39.6,20.4-39.6,34v49.7h305.9v-49.7C426.6,402,401.3,385.2,384.4,381.7z"/>
	<path class="st4" d="M206.7,134.3c-7.7-2.5-30.1,17.7-32,27.2c-2.1,10.9,45,9.3,49.1-5.9C225.9,148,218.1,137.9,206.7,134.3z"/>
	<path d="M207.2,135.9c-7.7-2.5-34.7,21.8-25.4,24.4c9.3,2.6,36.3,1.6,37.3-6.2C220.2,146.3,218.6,139.6,207.2,135.9z"/>
	<path class="st4" d="M380.1,466.1h46.5v-49.7c0-14.3-25.3-31.2-42.2-34.6c7.6-42.9,28.7-128.6,2.2-201.8 C356,95,247.5,92.6,244.2,87.7c-3.3-4.9-33.3-41.9-51.8-40.4c21.4,5.3,44.1,42.1,41.5,46.2C302.3,92.7,370.7,157,364,227.7 c-6.7,70.6-58.4,115.2-62.8,131.2s-15.2,19.9-73.6,21.8C389.4,377.2,410.2,394,380.1,466.1z"/>
	<path class="st4" d="M192.9,322.9c27.8-19.6,64.9-56.8,63.9-73.7c-1.1-16.9,0-28.4-7.6-25.6c-7.6,2.7-5.1,11.9-12.4,18.2 c-4.7,4-25.8,23.4-38.4,22.8c-12.6-0.5-22.9-2.2-28.4,2.1c-5.5,4.4-15.1,32.5-23.5,36c-10.4,4.3-73.6-13.3-73.1-39.8 c19.6,44.4,93.5,34,80.9-3.2c-8.3-24.5,17.5-11.5,26.4-6.3c8.9,5.2,33.5,8.2,48.3-14.5s21.2-32.7,30.5-37.5 c9.3-4.8,4.1-23,9.3-18.6c5.2,4.5,15.6,25.3,2.6,61.7C258.4,280.8,204.4,314,192.9,322.9z"/>
	<path class="st2" d="M384.4,381.7c7.6-42.9,28.7-128.6,2.2-201.8C356,95,247.5,92.6,244.2,87.7c-3.3-4.9-33.3-41.9-51.8-40.4 c-18.9,1.5,0.5,33.8-11.5,39.3c-8,3.6-40.9,36-45.3,48.6c-3.4,9.7,2.2,18-6,36c-8.2,18-55.7,63.8-56.2,91.7 c-0.5,26.6,62.8,44.2,73.1,39.8c8.3-3.5,18-31.7,23.5-36c5.5-4.4,15.8-2.7,28.4-2.1c12.6,0.5,33.6-18.8,38.4-22.8 c7.3-6.2,4.7-15.4,12.4-18.2c7.6-2.7,6.5,8.7,7.6,25.6c1.1,16.9-36,54-63.9,73.7c-24.2,17.1-34.4,38.7-32.7,59.5 c-16.7,4.5-39.6,20.4-39.6,34v49.7h305.9v-49.7C426.6,402,401.3,385.2,384.4,381.7z"/>
</svg>

<svg id="black-bishop" viewBox="0 0 500 500">
	<style type="text/css">
	.st0{fill:#f5f5f5;}
	.st1{fill:#aaa;}
	.st2{fill:none;stroke:#000;stroke-width:11;}
	.st3{fill:#555;}
	.st4{fill:#404040;}
	</style>
	<path class="st3" d="M355.1,379.5h-38.5c33.5-27.4,55.7-72.8,55.7-115.8c0-43.7-28.5-100.2-63.2-134.9 c-33.6,44.4-33.6,96.8-33.5,130.7l-44,0c0-41.9,0-116.4,58.3-175.7c1-3.5,1.5-7.2,1.5-11c0-22.9-18.6-41.5-41.5-41.5 c-22.9,0-41.5,18.6-41.5,41.5c0,12.6,5.7,23.9,14.6,31.5c-47.8,23.7-95.4,102.5-95.4,159.3c0,43,22.2,88.4,55.7,115.8h-38.5 c-16,0-47.9,19.3-47.9,35.3v49.7H403v-49.7C403,398.8,371.1,379.5,355.1,379.5z"/>
	<path class="st4" d="M228.5,264.2c0-41.9,3.1-119.4,61.5-178.8c1-3.5,1.5-7.2,1.5-11c0-22.9-18.6-41.5-41.5-41.5 c27.8,3.8,33.4,40.7,25.1,58.4c-10.4,22.2-68,79.2-68.5,129.5C206.3,245.3,217.6,262.8,228.5,264.2z"/>
	<path class="st4" d="M309.1,130.4c39.2,52.9,44.2,111.7,44.7,129.9c1.6,62.7-50.3,123.9-132.2,123.9c141.9,0,171.6,26.4,145.2,81.4 l36.2,0.4v-49.7c0-16-31.8-35.3-47.9-35.3h-38.5c33.5-27.4,55.7-72.8,55.7-115.8C372.4,221.6,343.9,165,309.1,130.4z"/>
	<path class="st2" d="M355.1,381h-38.5c33.5-27.4,55.7-72.8,55.7-115.8c0-43.7-28.5-100.2-63.2-134.9 c-33.6,44.4-33.6,96.8-33.5,130.7l-44,0c0-41.9,0-116.4,58.3-175.7c1-3.5,1.5-7.2,1.5-11c0-22.9-18.6-41.5-41.5-41.5 c-22.9,0-41.5,18.6-41.5,41.5c0,12.6,5.7,23.9,14.6,31.5c-47.8,23.7-95.4,102.5-95.4,159.3c0,43,22.2,88.4,55.7,115.8h-38.5 c-16,0-47.9,19.3-47.9,35.3v49.7H403v-49.7C403,400.3,371.1,381,355.1,381z"/>
</svg>

<svg id="black-rook" viewBox="0 0 500 500">
	<style type="text/css">
	.st0{fill:#f5f5f5;}
	.st1{fill:#aaa;}
	.st2{fill:none;stroke:#000;stroke-width:11;}
	.st3{fill:#555;}
	.st4{fill:#404040;}
	</style>
	<path class="st3" d="M355.6,381.1l-15.8-176.6c19.5-1.3,35.2-16.8,36.8-36.2l8.9-66.1c0.8-5.9-3.4-11.4-9.3-12.2l-38.8-5.2 c-5.9-0.8-11.4,3.4-12.2,9.3l-10.5,37.5H287V87.7c0-5.6-4.5-10.1-10.1-10.1h-52.5c-5.6,0-10.1,4.5-10.1,10.1v43.8h-26.5L177.3,94 c-0.8-5.9-6.3-10.1-12.2-9.3l-38.8,5.2c-5.9,0.8-10.1,6.3-9.3,12.2l9,66.7c0,0.2,0.1,0.4,0.1,0.6l0,0.1c0,0,0,0,0,0 c2.1,17.8,16,32,33.7,34.6l-15.9,177c-16.3,0.7-46.9,19.5-46.9,35.2v49.7H403v-49.7C403,400.5,371.7,381.4,355.6,381.1z"/>
	<path class="st4" d="M187.8,131.5L177.3,94c-0.8-5.9-6.3-10.1-12.2-9.3l-38.8,5.2c42.5-4.1,53.5,23.3,60.7,41.6L187.8,131.5z"/>
	<path class="st4" d="M287,132.7V87.7c0-5.6-4.5-10.1-10.1-10.1h-52.5C251.1,77.2,282.8,87.3,287,132.7L287,132.7z"/>
	<path class="st4" d="M365,466.1h38v-49.7c0-15.9-31.2-34.9-47.4-35.3l-15.8-176.6c19.5-1.3,35.2-16.8,36.8-36.2l8.9-66.1 c0.8-5.9-3.4-11.4-9.3-12.2l-38.8-5.2c46.7,3.9,31.1,52.3,30.4,65.4c-2.6,46.9-88.1,53.4-173.2,53.4c154,0,123.2,53.9,131.2,116.7 c5.7,44.6-6.7,60.7-111.5,61.2c133.8-0.7,161.8,26.9,161.3,53.9C375.1,452.7,365,466.1,365,466.1z"/>
	<path class="st2" d="M355.6,381.1l-15.8-176.6c19.5-1.3,35.2-16.8,36.8-36.2l8.9-66.1c0.8-5.9-3.4-11.4-9.3-12.2l-38.8-5.2 c-5.9-0.8-11.4,3.4-12.2,9.3l-10.5,37.5H287V87.7c0-5.6-4.5-10.1-10.1-10.1h-52.5c-5.6,0-10.1,4.5-10.1,10.1v43.8h-26.5L177.3,94 c-0.8-5.9-6.3-10.1-12.2-9.3l-38.8,5.2c-5.9,0.8-10.1,6.3-9.3,12.2l9,66.7c0,0.2,0.1,0.4,0.1,0.6l0,0.1c0,0,0,0,0,0 c2.1,17.8,16,32,33.7,34.6l-15.9,177c-16.3,0.7-46.9,19.5-46.9,35.2v49.7H403v-49.7C403,400.5,371.7,381.4,355.6,381.1z"/>
</svg>

<svg id="black-king" viewBox="0 0 500 500">
	<style type="text/css">
	.st0{fill:#f5f5f5;}
	.st1{fill:#aaa;}
	.st2{fill:none;stroke:#000;stroke-width:11;}
	.st3{fill:#555;}
	.st4{fill:#404040;}
	</style>
	<path class="st3" d="M457.7,253.6c0-43.9-35.2-79.5-78.6-79.5c-28,0-52.5,14.9-66.4,37.2c-8-18.9-19-34.2-31.8-43.8l-9.5-55.7 l43.6,6.3V66.2l-43.6,6.3l6.3-42.6h-57l6.3,42.6l-40.5-6.3v51.8l40.5-6.3l-9.5,54.7c-12.7,9.2-23.7,23.7-31.8,41.9 c-14.2-20.7-37.8-34.3-64.6-34.3c-43.4,0-78.6,35.6-78.6,79.5c0,43.7,47.4,98,90.6,98.3l4.8,30.2c-16.8,4.2-40.6,20.4-40.6,34.3 v49.7H403v-49.7c0-13.9-23.8-30.1-40.6-34.3l4.8-30.2C410.2,351.6,457.7,297.3,457.7,253.6z"/>
	<path class="st4" d="M186.3,214.9c-7.5-24.3-38.6-40.5-65.4-40.8c25,4.3,53.9,30.5,61.8,67.4C183.6,221.1,186.3,214.9,186.3,214.9z "/>
	<path class="st4" d="M314.5,213.9c-8-18.9-20.8-36.7-33.6-46.4l-12.6-58.9c-7.6-0.7-4,10.8-0.5,28c4.4,22.1-11.5,26.4-22.6,29.7 c40.8-1.4,59.7,47.8,58.4,75.3C309.6,219,314.5,213.9,314.5,213.9z"/>
	<path class="st4" d="M149,347.6c18.7-6.4,45.1-10.4,67.4-8c-12.4-6.7-25.9-17.9-30.6-53.1C187.1,325.9,178.4,336.1,149,347.6z"/>
	<path class="st4" d="M457.7,253.6c0-43.9-35.2-79.5-78.6-79.5c57.2,10.5,58.3,53.3,59.7,71.1c4.2,53.4-36.9,96-123.2,97 c-14-9-17.5-21-16.5-50.3c-4.7,35.3-17.1,42.3-29.6,49c7.2-0.3,14.5,0,21.8,0.8c1.6,0.2,3.2,0.4,4.8,0.6 c13.3,1.8,26.3,5.1,37.5,8.6c37,21.8-0.5,30.5-134.5,31.5c133.9-1,185.7,18.8,152.3,83.7H403v-49.7c0-13.9-23.8-30.1-40.6-34.3 l4.8-30.2C410.2,351.6,457.7,297.3,457.7,253.6z"/>
	<path class="st2" d="M457.7,253.6c0-43.9-35.2-79.5-78.6-79.5c-28,0-52.5,14.9-66.4,37.2c-8-18.9-19-34.2-31.8-43.8l-9.5-55.7 l43.6,6.3V66.2l-43.6,6.3l6.3-42.6h-57l6.3,42.6l-40.5-6.3v51.8l40.5-6.3l-9.5,54.7c-12.7,9.2-23.7,23.7-31.8,41.9 c-14.2-20.7-37.8-34.3-64.6-34.3c-43.4,0-78.6,35.6-78.6,79.5c0,43.7,47.4,98,90.6,98.3l4.8,30.2c-16.8,4.2-40.6,20.4-40.6,34.3 v49.7H403v-49.7c0-13.9-23.8-30.1-40.6-34.3l4.8-30.2C410.2,351.6,457.7,297.3,457.7,253.6z"/>
</svg>

<svg id="black-queen" viewBox="0 0 500 500">
	<style type="text/css">
	.st0{fill:#f5f5f5;}
	.st1{fill:#aaa;}
	.st2{fill:none;stroke:#000;stroke-width:11;}
	.st3{fill:#555;}
	.st4{fill:#404040;}
	</style>
	<path class="st3" d="M250,43.9c26.1,0,47.2,21.1,47.2,47.2c0,17.3-9.4,32.5-23.3,40.7l48,87.3l60.3-19.1c-3-5.6-4.7-12-4.7-18.8 c0-22.1,18-40.1,40.1-40.1c22.1,0,40.1,18,40.1,40.1c0,22.1-18,40.1-40.1,40.1c-1.5,0-2.9-0.1-4.4-0.3l-3.1,47.1 c-52.4,31.1-57.6,58.7-62,112.9h6.9c16,0,47.9,19.3,47.9,35.3v49.7l-153,0l-153,0v-49.7c0-16,31.8-35.3,47.9-35.3h6.9 c-4.4-54.2-9.6-81.8-62-112.9L86.7,221c-1.4,0.2-2.9,0.3-4.4,0.3c-22.1,0-40.1-18-40.1-40.1c0-22.1,18-40.1,40.1-40.1 c22.1,0,40.1,18,40.1,40.1c0,6.8-1.7,13.2-4.7,18.8l60.3,19.1l48-87.3c-13.9-8.2-23.3-23.3-23.3-40.7C202.8,65,223.9,43.9,250,43.9 z"/>
	<path class="st4" d="M250,46.5c26.1,0,47.2,18.5,47.2,44.6c0,17.3-9.7,32.5-23.7,40.7l46.3,90.7c0,0-14.1,10.5-49.6,19.4 c44.8-20.8,2.3-109.7,2.3-109.7s-11.9,4.3-30.6,1.5c23.9,0.9,40.9-25.9,41.6-42.9C284.4,69.4,277.5,51.9,250,46.5z"/>
	<path class="st4" d="M116.2,200.4c3-5.6,6.2-12.4,6.2-19.2c0-22.1-18-37-40.1-37c17.4,3.6,27,14.7,28.9,32.1 c1.5,13.1-2.2,23.5-13.4,37.5C111.7,209.1,116.2,200.4,116.2,200.4z"/>
	<path class="st4" d="M417.6,141.1c16.8,6.2,26.3,21.3,26.3,38.2c0,18-20,34.5-44.3,31.7c6.5,6.1,10.6,8.2,10.6,8.2 c-4.3,47.9-49.2,74.8-86.8,76.1c22-1.3,44.5,86.7-17,86.4c-17.4,1.9-31.1-12.3-31.4-18.6c-2.3,18.5-20.2,20.6-35.7,20.2 c-15.5-0.3-31.3-4.4-32.6-26.3c0.9,23.4-6.4,25.4-31.3,27.2c30.2,0.1,54.3,0.2,73,0.3c-4.7,0.1-9.5,0.2-14.6,0.2 c78.6-0.3,151.3-2.4,128.6,81.4l40.7,0v-49.7c0-16-31.8-35.3-47.9-35.3h-6.9c4.4-54.2,9.6-81.8,62-112.9l3.2-47.3 c1.4,0.2,2.8,0.4,4.3,0.4c22.1,0,40.1-18,40.1-40.1C457.7,159.1,439.8,141.1,417.6,141.1z"/>
	<path class="st4" d="M141.7,283.8c93,26.5,126.6,16.1,164.6,12.7c-33.9,4.8-32.1,39.1-31.8,44.3c-1.2-44-62.4-55.4-67.1-3.5 C207.2,298.3,184,296.8,141.7,283.8z"/>
	<path class="st2" d="M250,43.9c26.1,0,47.2,21.1,47.2,47.2c0,17.3-9.4,32.5-23.3,40.7l48,87.3l60.3-19.1c-3-5.6-4.7-12-4.7-18.8 c0-22.1,18-40.1,40.1-40.1c22.1,0,40.1,18,40.1,40.1c0,22.1-18,40.1-40.1,40.1c-1.5,0-2.9-0.1-4.4-0.3l-3.1,47.1 c-52.4,31.1-57.6,58.7-62,112.9h6.9c16,0,47.9,19.3,47.9,35.3v49.7l-153,0l-153,0v-49.7c0-16,31.8-35.3,47.9-35.3h6.9 c-4.4-54.2-9.6-81.8-62-112.9L86.7,221c-1.4,0.2-2.9,0.3-4.4,0.3c-22.1,0-40.1-18-40.1-40.1c0-22.1,18-40.1,40.1-40.1 c22.1,0,40.1,18,40.1,40.1c0,6.8-1.7,13.2-4.7,18.8l60.3,19.1l48-87.3c-13.9-8.2-23.3-23.3-23.3-40.7C202.8,65,223.9,43.9,250,43.9 z"/>
</svg>
